<mxfile host="app.diagrams.net" modified="2021-01-29T06:22:56.086Z" agent="5.0 (Windows NT 6.1; Win64; x64) AppleWebKit/537.36 (KHTML, like Gecko) Chrome/76.0.3809.132 Safari/537.36" etag="5qHwFu4FdB-DsuDn8Eyt" version="14.2.6" type="github">
  <diagram id="qFdNF8Z40JDE_vSiGnws" name="MyTea架构图">
    <mxGraphModel dx="2249" dy="762" grid="1" gridSize="10" guides="1" tooltips="1" connect="1" arrows="1" fold="1" page="1" pageScale="1" pageWidth="827" pageHeight="1169" math="0" shadow="0">
      <root>
        <mxCell id="0" />
        <mxCell id="1" parent="0" />
        <mxCell id="WUVt8O2-kMxFH5hkAYIA-47" style="edgeStyle=orthogonalEdgeStyle;rounded=0;orthogonalLoop=1;jettySize=auto;html=1;entryX=0;entryY=0.244;entryDx=0;entryDy=0;entryPerimeter=0;" edge="1" parent="1" source="WUVt8O2-kMxFH5hkAYIA-1" target="WUVt8O2-kMxFH5hkAYIA-4">
          <mxGeometry relative="1" as="geometry">
            <Array as="points">
              <mxPoint x="130" y="218" />
              <mxPoint x="130" y="218" />
            </Array>
          </mxGeometry>
        </mxCell>
        <mxCell id="WUVt8O2-kMxFH5hkAYIA-1" value="后台管理请求" style="rounded=1;whiteSpace=wrap;html=1;fillColor=#fa6800;strokeColor=#C73500;fontColor=#ffffff;" vertex="1" parent="1">
          <mxGeometry x="-110" y="200" width="160" height="40" as="geometry" />
        </mxCell>
        <mxCell id="WUVt8O2-kMxFH5hkAYIA-44" style="edgeStyle=orthogonalEdgeStyle;rounded=0;orthogonalLoop=1;jettySize=auto;html=1;exitX=1;exitY=1;exitDx=0;exitDy=0;" edge="1" parent="1" source="WUVt8O2-kMxFH5hkAYIA-2" target="WUVt8O2-kMxFH5hkAYIA-38">
          <mxGeometry relative="1" as="geometry" />
        </mxCell>
        <mxCell id="WUVt8O2-kMxFH5hkAYIA-45" value="静态资源" style="edgeLabel;html=1;align=center;verticalAlign=middle;resizable=0;points=[];" vertex="1" connectable="0" parent="WUVt8O2-kMxFH5hkAYIA-44">
          <mxGeometry x="-0.2482" relative="1" as="geometry">
            <mxPoint as="offset" />
          </mxGeometry>
        </mxCell>
        <mxCell id="WUVt8O2-kMxFH5hkAYIA-46" style="edgeStyle=orthogonalEdgeStyle;rounded=0;orthogonalLoop=1;jettySize=auto;html=1;" edge="1" parent="1" source="WUVt8O2-kMxFH5hkAYIA-2" target="WUVt8O2-kMxFH5hkAYIA-4">
          <mxGeometry relative="1" as="geometry" />
        </mxCell>
        <mxCell id="WUVt8O2-kMxFH5hkAYIA-2" value="商城前端请求" style="rounded=1;whiteSpace=wrap;html=1;fillColor=#f0a30a;strokeColor=#BD7000;fontColor=#ffffff;" vertex="1" parent="1">
          <mxGeometry x="-110" y="290" width="160" height="40" as="geometry" />
        </mxCell>
        <mxCell id="WUVt8O2-kMxFH5hkAYIA-48" style="edgeStyle=orthogonalEdgeStyle;rounded=0;orthogonalLoop=1;jettySize=auto;html=1;" edge="1" parent="1" source="WUVt8O2-kMxFH5hkAYIA-4" target="WUVt8O2-kMxFH5hkAYIA-5">
          <mxGeometry relative="1" as="geometry" />
        </mxCell>
        <mxCell id="WUVt8O2-kMxFH5hkAYIA-4" value="限流&lt;br&gt;鉴权&lt;br&gt;熔断&lt;br&gt;降级&lt;br&gt;&lt;br&gt;&lt;b&gt;API网关&lt;br&gt;&lt;/b&gt;&lt;br&gt;负载均衡" style="html=1;points=[];perimeter=orthogonalPerimeter;fillColor=#dae8fc;strokeColor=#6c8ebf;" vertex="1" parent="1">
          <mxGeometry x="220" y="130" width="70" height="360" as="geometry" />
        </mxCell>
        <mxCell id="WUVt8O2-kMxFH5hkAYIA-41" style="edgeStyle=orthogonalEdgeStyle;rounded=0;orthogonalLoop=1;jettySize=auto;html=1;entryX=0.43;entryY=-0.033;entryDx=0;entryDy=0;entryPerimeter=0;" edge="1" parent="1" source="WUVt8O2-kMxFH5hkAYIA-5" target="WUVt8O2-kMxFH5hkAYIA-26">
          <mxGeometry relative="1" as="geometry" />
        </mxCell>
        <mxCell id="WUVt8O2-kMxFH5hkAYIA-5" value="&lt;b&gt;业务微服务群&lt;/b&gt;" style="whiteSpace=wrap;html=1;aspect=fixed;verticalAlign=top;fillColor=#f5f5f5;strokeColor=#666666;fontColor=#333333;" vertex="1" parent="1">
          <mxGeometry x="430" y="130" width="360" height="360" as="geometry" />
        </mxCell>
        <mxCell id="WUVt8O2-kMxFH5hkAYIA-6" value="商品服务" style="rounded=1;whiteSpace=wrap;html=1;fillColor=#1ba1e2;strokeColor=#006EAF;fontColor=#ffffff;" vertex="1" parent="1">
          <mxGeometry x="470" y="160" width="80" height="40" as="geometry" />
        </mxCell>
        <mxCell id="WUVt8O2-kMxFH5hkAYIA-8" value="商家服务" style="rounded=1;whiteSpace=wrap;html=1;fillColor=#1ba1e2;strokeColor=#006EAF;fontColor=#ffffff;" vertex="1" parent="1">
          <mxGeometry x="640" y="160" width="80" height="40" as="geometry" />
        </mxCell>
        <mxCell id="WUVt8O2-kMxFH5hkAYIA-9" value="优惠服务" style="rounded=1;whiteSpace=wrap;html=1;fillColor=#1ba1e2;strokeColor=#006EAF;fontColor=#ffffff;" vertex="1" parent="1">
          <mxGeometry x="470" y="220" width="80" height="40" as="geometry" />
        </mxCell>
        <mxCell id="WUVt8O2-kMxFH5hkAYIA-10" value="仓储服务" style="rounded=1;whiteSpace=wrap;html=1;fillColor=#1ba1e2;strokeColor=#006EAF;fontColor=#ffffff;" vertex="1" parent="1">
          <mxGeometry x="470" y="270" width="80" height="40" as="geometry" />
        </mxCell>
        <mxCell id="WUVt8O2-kMxFH5hkAYIA-11" value="订单服务" style="rounded=1;whiteSpace=wrap;html=1;fillColor=#1ba1e2;strokeColor=#006EAF;fontColor=#ffffff;" vertex="1" parent="1">
          <mxGeometry x="470" y="320" width="80" height="40" as="geometry" />
        </mxCell>
        <mxCell id="WUVt8O2-kMxFH5hkAYIA-12" value="会员服务" style="rounded=1;whiteSpace=wrap;html=1;fillColor=#1ba1e2;strokeColor=#006EAF;fontColor=#ffffff;" vertex="1" parent="1">
          <mxGeometry x="640" y="220" width="80" height="40" as="geometry" />
        </mxCell>
        <mxCell id="WUVt8O2-kMxFH5hkAYIA-13" value="检索服务" style="rounded=1;whiteSpace=wrap;html=1;fillColor=#1ba1e2;strokeColor=#006EAF;fontColor=#ffffff;" vertex="1" parent="1">
          <mxGeometry x="640" y="270" width="80" height="40" as="geometry" />
        </mxCell>
        <mxCell id="WUVt8O2-kMxFH5hkAYIA-14" value="第三方服务" style="rounded=1;whiteSpace=wrap;html=1;fillColor=#1ba1e2;strokeColor=#006EAF;fontColor=#ffffff;" vertex="1" parent="1">
          <mxGeometry x="640" y="320" width="80" height="40" as="geometry" />
        </mxCell>
        <mxCell id="WUVt8O2-kMxFH5hkAYIA-15" value="购物车服务" style="rounded=1;whiteSpace=wrap;html=1;fillColor=#1ba1e2;strokeColor=#006EAF;fontColor=#ffffff;" vertex="1" parent="1">
          <mxGeometry x="470" y="380" width="80" height="40" as="geometry" />
        </mxCell>
        <mxCell id="WUVt8O2-kMxFH5hkAYIA-16" value="统一认证服务" style="rounded=1;whiteSpace=wrap;html=1;fillColor=#1ba1e2;strokeColor=#006EAF;fontColor=#ffffff;" vertex="1" parent="1">
          <mxGeometry x="640" y="380" width="80" height="40" as="geometry" />
        </mxCell>
        <mxCell id="WUVt8O2-kMxFH5hkAYIA-17" value="后台管理服务" style="rounded=1;whiteSpace=wrap;html=1;fillColor=#0050ef;strokeColor=#001DBC;fontColor=#ffffff;" vertex="1" parent="1">
          <mxGeometry x="510" y="440" width="160" height="40" as="geometry" />
        </mxCell>
        <mxCell id="WUVt8O2-kMxFH5hkAYIA-42" style="edgeStyle=orthogonalEdgeStyle;rounded=0;orthogonalLoop=1;jettySize=auto;html=1;entryX=1;entryY=0.5;entryDx=0;entryDy=0;" edge="1" parent="1" source="WUVt8O2-kMxFH5hkAYIA-19" target="WUVt8O2-kMxFH5hkAYIA-5">
          <mxGeometry relative="1" as="geometry" />
        </mxCell>
        <mxCell id="WUVt8O2-kMxFH5hkAYIA-19" value="&lt;b&gt;服务治理&lt;/b&gt;" style="rounded=0;whiteSpace=wrap;html=1;verticalAlign=top;fillColor=#dae8fc;strokeColor=#6c8ebf;" vertex="1" parent="1">
          <mxGeometry x="880" y="105" width="120" height="410" as="geometry" />
        </mxCell>
        <mxCell id="WUVt8O2-kMxFH5hkAYIA-20" value="Nacos注册中心" style="rounded=1;whiteSpace=wrap;html=1;fillColor=#60a917;strokeColor=#2D7600;fontColor=#ffffff;" vertex="1" parent="1">
          <mxGeometry x="890" y="140" width="100" height="40" as="geometry" />
        </mxCell>
        <mxCell id="WUVt8O2-kMxFH5hkAYIA-21" value="Nacos配置中心" style="rounded=1;whiteSpace=wrap;html=1;fillColor=#60a917;strokeColor=#2D7600;fontColor=#ffffff;" vertex="1" parent="1">
          <mxGeometry x="890" y="190" width="100" height="40" as="geometry" />
        </mxCell>
        <mxCell id="WUVt8O2-kMxFH5hkAYIA-22" value="Sentinel服务容错" style="rounded=1;whiteSpace=wrap;html=1;fillColor=#60a917;strokeColor=#2D7600;fontColor=#ffffff;" vertex="1" parent="1">
          <mxGeometry x="890" y="250" width="100" height="40" as="geometry" />
        </mxCell>
        <mxCell id="WUVt8O2-kMxFH5hkAYIA-23" value="Feign远程调用及负载均衡" style="rounded=1;whiteSpace=wrap;html=1;fillColor=#60a917;strokeColor=#2D7600;fontColor=#ffffff;" vertex="1" parent="1">
          <mxGeometry x="890" y="330" width="100" height="40" as="geometry" />
        </mxCell>
        <mxCell id="WUVt8O2-kMxFH5hkAYIA-24" value="Gateway网关" style="rounded=1;whiteSpace=wrap;html=1;fillColor=#60a917;strokeColor=#2D7600;fontColor=#ffffff;" vertex="1" parent="1">
          <mxGeometry x="890" y="390" width="100" height="40" as="geometry" />
        </mxCell>
        <mxCell id="WUVt8O2-kMxFH5hkAYIA-25" value="Sleuth服务追踪&lt;br&gt;+Zipkin+ES" style="rounded=1;whiteSpace=wrap;html=1;fillColor=#60a917;strokeColor=#2D7600;fontColor=#ffffff;" vertex="1" parent="1">
          <mxGeometry x="890" y="450" width="100" height="40" as="geometry" />
        </mxCell>
        <mxCell id="WUVt8O2-kMxFH5hkAYIA-26" value="&lt;b&gt;数据支撑层&lt;/b&gt;" style="rounded=0;whiteSpace=wrap;html=1;verticalAlign=top;" vertex="1" parent="1">
          <mxGeometry x="240" y="570" width="860" height="120" as="geometry" />
        </mxCell>
        <mxCell id="WUVt8O2-kMxFH5hkAYIA-27" value="" style="aspect=fixed;html=1;points=[];align=center;image;fontSize=12;image=img/lib/mscae/Cache_Redis_Product.svg;" vertex="1" parent="1">
          <mxGeometry x="250" y="598.25" width="50" height="42" as="geometry" />
        </mxCell>
        <mxCell id="WUVt8O2-kMxFH5hkAYIA-28" value="" style="aspect=fixed;html=1;points=[];align=center;image;fontSize=12;image=img/lib/mscae/Cache_Redis_Product.svg;" vertex="1" parent="1">
          <mxGeometry x="310" y="598.25" width="50" height="42" as="geometry" />
        </mxCell>
        <mxCell id="WUVt8O2-kMxFH5hkAYIA-30" value="" style="outlineConnect=0;dashed=0;verticalLabelPosition=bottom;verticalAlign=top;align=center;html=1;shape=mxgraph.aws3.mysql_db_instance_2;fillColor=#2E73B8;gradientColor=none;" vertex="1" parent="1">
          <mxGeometry x="480" y="619.25" width="50" height="42.5" as="geometry" />
        </mxCell>
        <mxCell id="WUVt8O2-kMxFH5hkAYIA-31" value="" style="outlineConnect=0;dashed=0;verticalLabelPosition=bottom;verticalAlign=top;align=center;html=1;shape=mxgraph.aws3.mysql_db_instance;fillColor=#2E73B8;gradientColor=none;" vertex="1" parent="1">
          <mxGeometry x="430" y="596.75" width="50" height="52.5" as="geometry" />
        </mxCell>
        <mxCell id="WUVt8O2-kMxFH5hkAYIA-35" value="" style="shape=image;verticalLabelPosition=bottom;labelBackgroundColor=#ffffff;verticalAlign=top;aspect=fixed;imageAspect=0;image=data:image/png,iVBORw0KGgoAAAANSUhEUgAAAHkAAABMCAYAAABJTRhXAAAgAElEQVR4Ae2915MkSXof+HP3EKlKV5fortZierTakbuDWa7CAliCxgPsAArjC5/u5Wj8I+7pHmkkD3YG44FnRpAEjnsgsbsEsQvs6NmZ2RHdM9NaV1V3l67KqswM5U77fZ5enV3TA1uDHWgkDtFWnZkRHh4R/vmnf/6FOnPmjMPfbH+tR0D/tX66v3k4GYG/IfL/DyZCFJ7Rub8qqa3CJQA48Ff4nwf874Emv8DXe+fc+/YLnPaXutYv0u9/b22U4rjc2yIS1xiDVmsY9XoDCp7YFgraVp4KSkPJEJEqPOL3V8oImYwrhHAOEQ8DqFBpC+uAmMe0gnIFLGLwHA0L7QxKRCiVAnuJnb/C4P05BbC7MP1MWaLUGpXybTUKKE5OF8M4C6gKyhk4bVApCwcH7TScUyiVk2fRcj0FOAt+54QL1+B12MzI/VU8W/piP7wOh87y2o79VvLsbMN9vBp78yPlB5ljq/X9wnIvM/F3IEo4Fn7fI5P/xuOhPduE9oPXKMsSKysrqCren9+EyForNJo1DI+NAtbC8aaVRuxKT9r+YPAxhECo4JRGBS8IIpkM3OegrIFTFjtKoYRGHZV8GldC2wiFUohgkVYOVjkUhmNvELsIQuD7J6EQWOYNAFMW6JlI7o9ENdiRgXUYgiaRUXC6SH9W8SGtvx9oFDoHJ41BBE4zT16ZBvddg6cpDXkGf122BQKpOBG0EL1iIzjNESGR/f+afcus9EQYJEAY9MHPQCjuCwQcPL73+2Abft/bP4m8trZ2P5F3O9EkbgnlutBVIZyruE8ncCqCchVUlUG7AkrFsHoIzsRQluymwLZKl4DhQ5M3Nch5pteV87UqECGHihM43ZCR1LZELBzGgfE8JTRWnCj8pqAUuYMDamWkOZGMc0jyHlS1ChelqOIh5GxljBAwqRSiSgnnWmehXI60XAUoUaIRuX8Hfw3hPhKf7SoLJ38lKuSAYfsaNBI456UW70fuTPkJ7vnX/6842WULU8L/ItcFzttLVLbYy7mhbThmrQX/wkbChj5Dm8FzQrvwKXfqh5eEdFB3LyE791OU63cRzx5HcvpV6PFDsAvn/f6tu4j2n0L90W8iGjkEaP+whYrgECOuyC1As+wC18/AvfdDmKKASrqw0Q7KZhNu7BTM7Fegpk6g2xgWkVivKBf6IlJ40Itq40gbskblxbSziKoK2e1L6Fx4DemRxxGfnEKlKR/IpTJNRIQWmvOvAlbnkX/8E8RDY6g9/FWgOe5FurRWInqVs9LWoYP8+gfYufRzmOEpDD/9XbihWVFT2uV9ieGflWI6iHhbVdjYWMfW1ja0ijAxMYFWq/UFAnLgSWhy3Pr6OjqdDuI4xujoKBqNRqCLnFcUBTY3N6Vdt9uV86IokrZjY2Oo1WrSfu8kCdcInYm45kUtZVlZwS1eAt7+dzCLn8M+9CrcxCmooYNwV85CvfFvoFYuY/vEi0jmjiEZngBU0teT1MccYuo7cv0W7NLHKD76PdgoBUYmRW/ZcgN5+afoDZ1G4+lfgXnqG3BjB6GsE90N0aei9fvamP1RZFLPauFiSoBiYx7tM69DpUOIT/6SiPqENoBwhtedme6L0fYSio/egJk5DBx7Fmhyv0YlYpWTUsEojdJBdHmxdA699/8YjZnTwKlX4BoUywWU3YDLurC2BqRjsJEfZKOccNrq6hoWF26LDcAbajabX0oEEndhYUFEKydDkiRC5MCReZ7j7t27WFxclAnB4zy2vb0tOpeT6PDhwzKRSL9AaH7n3+Dm2ZADI4YLxUIXpthGVHZR2k5fz1Gf7iAp24jLDvJ8B85RJEWA84Q1oNmVU3PCGoUq0igTi+3hBPXHfgmNp74HG08AO7eQzH+O4uN3UP7sXyGtdWGe+Z/h4gkxykTw0WKj3hMjhzOfRDewGogpxklsdNEoVpBWPeHE2ArZABGjEbRTiC0nBqVDjsSuIqkmhM8pekWFU/dygos4jVC5itYC4qlTaD3xdSQj+4G02TesNNDpYufSeygyYPihl2FG91PWiirzA6thTCxE2Vhfx/7ZWTFqBwec3yl6SeSdTmf3+CCRaDRRr5LA3H/kyBGQc2kgD04OSoCjx44hTZK9l7jvtxBZ9JIuQC4qohhlHCFOFWwSQ8cG0DnyGKhSBRUDGfWgHkKFBrQ1oEjlf87S0FHCcRVqcKjDmlHY0YfgDrwAlYzDuSdgDnwVSk0he/t3USx+BPvot2Drk2Lt0rI1LoeypSey2LoRoIwYNJTcJCd0hQQdRCigUUJVJYASNkrgkMJUEVKr4CKNDEA3zmHiCpGoak5a9kLRLra0TFqjDCLVgD70MqIDjwPGwCbDYoQpq1FutNH57F0xStXh0zBuH6jbKRfkvqxGnNSQpA4UryRImqb3DXgg8s7ODmeYcOKgvuVk6fV6WF1dRWUt5g4cwMzMDCimuVFE83uW5zIRpqankcTxLid/4WKeFbmbLoK3coU7OYgcIEfd4w0OsWJoXVNHkqg0jjxfiKtScchUJJYnj9NQc1WGRpHDlAmUq4koL3QNZWMWevwEjBmG2tqG6fYQDVMqk8AdqHwLtujIjFemBh0NwUQtKBPJfdGFspri3RMWVQ8u24Ere3BpDYqEQQPK0jCkLWxQagerLWAL2N42nM29yxPXoUwDNqp7Y5MuV9REGcXiT1GMR1UPKCrYzhpaOzdhoxg6W4XL24BJhTnE3YKG1gatZg0bGxtot9sYGRkRCzhwKkc7yzIRu5wAjWYT2+220IZtApE5CZqNhuhfcvDgRt09MjyM27dvY3NjA8NDQ18gMvsJ1+yLa1q3MXQVIS6BKHMwOVDmJUyeQ5UlojyHyStwXGskXNGFciXVpehgTg5a4aUhd1C40lDowrie/KbK52TS9MttCWfbqHQPOk0AkRbeendrF5DPf4r2+hqK0iLVDo3xGSSHvgIzfkImHq3kSscoqHPzdWS3zqIzfwPVdhtJs4b04HHEs48ByQQ0fWdrYSoDXfRQLF1Et91Fd2sVCXK0puYQHXkWemQOlha0AdzmHRTzZxEPTyKePQVX7KB39wryK68jWr+MSCfIL7yDYmkF0eh+1GePwUVDZEwopTE0NAQSiYSenp4Wbvbi3KsHcni318P42Jhw5fYABdmOUoCG2fj4uJwbiBUmAYk+3Cfy1taWuEvcF9oNXotd7xpe1HtiXZMDlUNF/6/bBlYuAc0YauMGUNEd0tC9LtTyFbjmOKooEaJR6NloCFVjioqTZhIsElgVw4hr1oOyEUyZw20uobj7uXCj2XcMtjYmEgAbd1C++wfIL/8MWTILVx8DurfQ6a2jfOwqmq/8L1DpOJ0fEcm508jvnEXe3kG+tgVVVMg6y8D1abiX/wH0sZcRqxKwOQwV+uoCtj/8T8hzTYZGtXkVma6kbfz8b8DpFhgzKNauY+eN/wv14y8i5f1lW+gsnsP29TMY2VoXH797/h10WtfRmHsS6cgYMFz3/rMC6vW6GFEkNAlG3TlIAHI45zwNLhpYgxv1sexTSowxiuZwLtsFQlMKkLBsSyuchlkg7mB//C6cTOlLdyPjLOZfpBBTtC1fR/nu91Gdfwt64SxMe1381WTzKuw7v4vi0o8BVaMxLdycDR9C+vzfQzx7GM7Rl26JH+Tad1AsnYcyMdzmArL5C6iun0U68wjioy/A1cahCoPi6jW4T99DMjWLfV/5+4gnjkJt3sLW6/8a3ff/HLXTv4L40Cg0SDQH0wXs/CL0I49g4msvQicJis/eRHH+XZRn/gzJ+ClgbFxUC1SBauky0Gxg5JnfRDx2AtWt91D92b9A8c7vA0efhZl+UgxQXXQQb96A7pyEpSFXH0fr+FNI0IPuLIkubz73bcRTx4HGARQj+1GpGhS9AEbMTCRiOohsEpMEIRFIFLpFJBL308Aa3KifqYu5BeKGT+5jH/STSXx+kuM5MdiG5z6I0H1xLTaAD+/1Q5hiAHVXUF59B46ioMrgbMn4ANKsjfLSW1BX3/HuTeV1Rj5yBPHJl4GZo8LF1NtRtoni4ptob69AFSWijXm5qWjuSZinfxVq7isAo1hViaJZh3n8BdiTz8EeeQlIhhFNHUYyfw724u8Aa/Nwh58AXAZje0gLIE0mgVOvojr1DHKjEJsa0qWLqG5+ALV0HW54H5yKJdBTxQb1h19CevoVZOkMyskD0AvnUJ35z1BXPkAy8aioDgnAUMwrC6sjqKSFaF8TqtdFPvQ6rIkRH30OevZxZKiBMQKVZeBEYuCG0oDilBxMX3hycnKXyIG794rxQULTgB0kMgk3SOhwTIhcVUJYHg9t2H7wHAnNUEzH1okYMhXFtihQsRoNeoiwA2tKlPSYFA0vBa1aQDQBFbckopQUPaS9FSibSwRXOICGiKUe78lf5BxSlSJ1NFCcRKucScQaz2KN6OSjSL/xj2BP/BK6cQO9ahu5asM1MhisAvmmj3zRMGTINVIwUwcRTZ9CHk2gF02inDgFMzGHaOcusDUPa3Mf/HYaduwU9P7ngWRIrMdieD/yY19FqRWw+DFQ7sjz8QSGYRlvp2KoaGvoGnJTR2E0KrZ3CYxLkFqDxNJqz6BMBifhVCdWMP1kEpXWMgnCgacOpdvFSUDu/rKNbX+RbZCwbD94Hr/zT3QyDxpXIXKMM0MCI4xWMv9AVSYKhIFKXtcBZWMU9vQ3YCePQ+WrKD/9AeKVO7sxXQY2KbeYjCjTSUQPfQNjz/8qEDVgt1Zhz72J/NK7MHEN0dA41NTj0CqG1kNQuoJZXUa6cgbYXEZZtqEvfyxuHKPDvCGnUolYFbUKdnofktYoapw4VkMnw7BD0yiNBYoNRBKlqqBtDDN2AqZ5EEqlNBPFncLoBHSqYbduoEQpROZ16JlTLdA9Y+JD4vK0UygVXATjGDoNSQwLTgdxxxjPdhBxSsuanEzCMqJFUU0RXq/VJFASCDRITE6GQHz7JYQOxONxo8kwwqvSzYP63NXJlQZKQ4OLf6SlkoySBPIZNha3iHYzsDN+CLWXfhPxweehtxeQ3b6KcuUuerqOhqarxPYlrCtQRSnU6BEks0+hSobgZkrEyQjKpWuoFs4Cy5dgxk/CGA3VWUN25R1UF96AWVuGckNwOoXaWIdyaT/QIQIRltmoxKEabkIlCWrWIpHInUYRt9DjBFIlYkla8K4NdNyEMQkUIkQOaDB4E1XIjEXpCuFokWHen+xLMsbNOfW9WCwY7VJ1WFUXNSZSTZISKVTVFI+DXKH6Ipu6kzqYepPRKlrWU1NTD/SfSSUSTKJb9PqLwruRA6k5EpFEpi5mKDWt13cnBfc/aLtHZIb1dEgM9P1mnkOm5JP34+NMGxZRDbXmEHSjAVW1xK+kO9MzdaSm5oMFzD05RqO6FHiSsaK1bRDDjR4BZk4gv/ga0o1FRBTxWqG8+T567/x7RFkP0eEnoeaeAOotlBc1qpWzYOyYGS6GN8kuulLQJUWn95uZPIHtwZV00WJopj5pkJgINmKyheKYLh3TkwziOLhuhoqWNidAX1pVEg5zcBIL8KKM/0vqxVUStCl1jEpTZIM+hBxlC15PgnJQYmXTuNre2RHikqPJfXSxyK3BYBokTCAyPynmaTnTSAscGriYx3g+LXnqfm7+2l7VDva5a3hRQDHHG/Kvkk7z0lFEttESo5eBaWwuAp/8Ceydy3DdFajNC4iUQ81uQ1t6fX3DQZKMhVje3EPhZpiJqteQjM3BMt24fheKGaU8R37xbZiV84hf+m24Z/4u9Misd9sW3hBjC64jseVKYs0GSZUiWm+jynooWikMCph8E25rGZFVSOIWhARJA6qu4fLbqIp1QB+WICwNQawtwzIuMHIInBY+2m1lElGaSc5cki8cNmbAN+X5JJFK20SYh5Iig9NdEe1Bv5GQFNMU0czxBquaRA5EC5/sPXAiCcc/6nO6W/weRDjbhMQFzx3U7aGvMBECob2fHMjCTAysJBxEw3DCSxjRN5cZ6oD65m1U7/4BqlpTOCdp3yV/ol5uw5TbEnZkXlXUlOg3znFaiF7uu6SBeGS/5GL1xgJ0Zx2I6nDtNVQUp9PTAGd7CZQLN5Bd/gT1qiMkIIFp95jmGLLmLLrL86ivXIFrPA7CEuzKdRTL16CGmtAjE2LcqcYI4qF9sHdvwt29DjX+kNgbWL+C4urP4JAg2f8UEDe8PSKhSubGyfXMTvFZyKVk2Aq2aCPO1hDJcWa/+M+hVMyUcTp7g4fcGKxsJhtInH379u2KahIlECQQmPtIVE4ORrQ4OfibRhz7Yx/cR13PfZwwPJfuE4+HfgKB+SmcTOua6A7DCIHbEY4TbumHO8mYNMRk4yctz607MG35ITq4x/i9SdAiJIAWG5MAKkGuqBsj0Ze8DnmZLogamoBrjKDb2YHubSOZaMGNTaK8blBe/lB0Z5al2L74CdT2XTC8SZEiIlYbqJE5qKNPo/35O3BnfoC4uwRUGbJP30LZ7qD2yHPQ+46i0DFcYwzq0HNwCwuoPv6BlymtSRQXf4by2sdI5x4W9ZAbqhMSK0WmakihJatF/pZ/8TCq2iHky5egzv05ot4m1PBhqLEDkoGLSiJevO7mYHPQGYIkMUhkil0Sj1wZuI5jyraBONxP8ctoF/U3Ofn69etCTPZHMU3JwNAoiU8VQI4fTD32KbX7sSuuJdxIMdiaAA48hi4NG3GHGEKktmJIUuzb3ZPDF4q1romQDR/AUHMfzXMhdNGcRjb7BPTQrIQ8JetP+BA5Y2QK5eFnsb3Tg3Ex4rSJ5PTLyJdW0L16Ce7uPKpoCHp0As0nX0Hv/DR0bZ9Hq6gaMLQfjce+haq7g971MygWPhZL2BUG6fHnkT7+a8DQQUIXoJIh6Ie+DWz30Lv8Jop3/hBl3EDWyTB87CXUnv429OhhVAREwEkELpt6AvHocQEYeNSJAoYPwJ38Bop2F+7znwLXzyI+9U3Un/keVDqKNI6Q91OCgYgkGAlAwpDryNkkFo/zj4YZDS3uCxv3c2LMzc1JooLnMmhCfV4RAlVVMFGEXpbhzp07u5Mp5JdDP+FTffDBBy5OEuybncb46DCwvQK3ckMsXSWWKSUVxZVnZc7o+zaKdJpWvMc4RTr1KGxrBpY6amsJuHMBeuIIMHFYgh6RIwLFAFkb1fIF5IVFNHEUUaMFV3ZRzV+GvXsZZdkBWqNIZo/CJHXYlU2YfYeA0Wk4Jg9sBZPtwC5fR37nPFznLhBZ6OFZRPsehho7AhU1+irDQZUOtr2MfOk8yvYCbJVB1SdQn3oIZnQOqNUBVYp6yhm2XfwIpjUOPfN4nwBeFNr2HZS3P0W1chGVVTAzj8EcfFriBZ2dNsqixPCQD4SEcSL3keMiggNGRnYNJYpYWtw8TgNtr4HF8ymeybX8I3HlBinm+9GtMDk4kXg+3bRLly7JZ5ho6oP333dxmmLf7CzGJiZ88MLSMpZYpVer/XxTf8TCvfvPvtXuxTnFfiKwoMrQxCdMpwNnUpSxtxAj+qIUinTJqi6oFqATD/GhUKSpW3gUhKV+jhkT5n6LgmFRbRArJvD5wJGEAMuiC+sygSAZnSIipzM1KaABMTuheYPiYhVwVRfKFlA6hoqYL+Y904jK4VyJXKVIii1Bvdi4IfED5qn5qNTTtuqhLHI4q6CjhvTBNK3rW+VRn1PDQO2GGxXtCbXLtRTR4VggViBMOJefQZwHkR6O8XdoH6QDiXzhwgWZHKEd3UXxt7rtLa/v5EnCYU9W8ZVJDlKmT9R7Lfw3ujVMXhibCS7LoyUNIiI+VAmrdqQhgy5s51NzobtOP8JEqeGvxolAe5zWOvc4zdS/mHOSQ5ZUJmKUtKlJPzlG8GEFY3ckBs0MmUB0iBPjgMjNezyZzDKdw/Le/DTyE5sBIR2LbqbtQZeL90ygAnuQfeJMeWQqJwYxZHIteiCcs3sH57/hb/GfB/BgvLToZPpbmxub2Nrcuhfeuk8qe+L6QXrwHcsA8AnJoSSKt8ke3Jh7pf/+RcSJlx78QO5e+/7+2MIf8hBZf4aSa4W5yTgGb4Ltdudj+NH/9H34W+trIX9Dch/h3vodhHO/8CT3ermviccPfqH1f6sd5G7Sc3ATIvMAZ8BfzXZvMO4N+71hufftF7966HGXiL/gqX+Za/2CXf931SyI8HBTQmTK8yRNkcTECg0MHbFW4hzvHVYf7LgnmPibbXw7crKHtrNFmFVs46E2PE6epJgMZ355qP7eHZFLRbX2715gN/wuQD/2yd6oNrzMoUEYeJ9H+GQUpffu1HcUnjh8+jb+7DBQX/wMrcO1vtjvF8/5q99DhqUxx8+wSTCEftvE5D6MjY8LioI6k7ossp676fJ4AcgH4coD6ipGg2IZOWZsGDSg1cxQI2E5XQ1UTiF1pUBp6YfDJsg1fc8KiWXMyKAgthlKsjkMcvTnidwfRSmJwz9eKCpKZERzMihPaK5igISJqWZfb1I/Mq0YyQoOTjUmLTgJMuPvmaBdTijaF5JMkicaIBQhxSLzKx8b6OOrvZ5lj/0FBmL40eng/XBUiPMi4rzvifS9jhCpCgM+OPjyVAPE4LHAhfzc2za0D0YajTa2C795nIbXxYsX7ze85OIEjGs+HY0iv2qCJ2rjl7/4JQV+ZpAz+ZiMEokFy9BeaaB1BmcKwJCERFB7yKsqw1KTCJG2iGl5IhEgXeJyxHxI5ZETAlwXQlOxeX73mGsOIFM7tGoUYsaLK8oBWu4GlWmhcvzkcplIUJpiUYpEYV8VDA0/0ZfEckXSj5+4hOPK8ImbRYNMkDGGsW4vCRjuFTQFJYGA/Wkle34Xogvgvt+WRpwoep/EJxHCH4kWCMd9g1vYH/bxdzhvcF/4zmOBuKEdzwn7Qjt+9oMhHFDGrR2wfhPlrU9giQKZmIWeYzBjCmr9Boobn6DobiAan0N06BmYxrSIYE5eWqQEt0eVFg5pMnp25yr0uXdhaO3FPSDagSaYfuQI7MgJoDWFjOFMZVATLmB0mw/PUKF3zfnLC3UvEUhsLsupVm+gO/8BounjUAfGUchyFaI6mZag28EgDoNkpcSyyyvvI2o2ER96EkgJ6Cc0yROK7iInLxMpzmUobp9Hb/EKTHMU9ePPAvVJkVzEtJFb/SRnZI+Tve9xOIfOzja6HXoXHoMVEgeDAx6+0wZipIqcR25nZIxBEW5hApBT6UOH7BV/M3gyPDIiID9+DwQO/YbPwUkjE54DKzjqsoK9cRb5n/xz2MVzKB96BfXv/BPo2hTycz9H/pN/gXzpCsqTL2L8f/qnSOot8XErozw6QpaS0Je0ggix199E+Z//d5R0o5oNBgxRuR3k8Sji/S+i/vSvAg89D9ecEB+THETpQFUhXjpnpghzEoMqhGFNCpwc7TuXsPr6f8TIs99F68AzwvmRo4zwepfY7w6JTDG6MY/s9f+E+vQhxJPHgXRE7AEvs8jXvApj9sRpF8iuv4utP/tD1KYeQn3yBFwyBasLRG4Tihg1W4OLh2G1z/5QvBdFidu372Bx8Y7cwfHjxwVO+2VEYMiS4UpGshjdIraaCBK2J4FoIa+srmJxYQHt7W3hUOaOuZ+TglBcwnUZAAlcHwi897PPydxNU8nCFW0knWVE3VWU2RoU4a6Oa5o20OguoZatYGtnWaBAuwqUIlvw0j7ibQk2iCxKk2GnUaB28jnUHvuGYLDdzjzihYsoL3yG4qfXkWAN5tHvAZEfeE44hu+oHLzR5Fd3ELrP5U2U2BTlhO42szuoVR0hEBfn0Z8lF1EnswPDGxG0Zg+1bAlJPiIYrBCMCU8tARkVC7ieGeh4dD8ahx9DOnYYiGtiU5B/Va+D7OanKDKF+uFnoEcoyajfPe6a0kPuvyxBcP0MMdEPAL6TI0NcmgQKupV9hd9MQMzfuoW8KISYjGiRc8nVDGXeXlyUwMqhQ4d2I2hyMw/4r09kb0wxw1KaCGVsUCUKLomgYw2jM+SxhU04ykAe+QVvlthmQl3ZMfHuDBpYv7SUwLbKNJCn44j2Pw08/KvQyQRAopxahm58H9n7v4/85lswJ16ErY3KUhWGPQk4oGhkdChY5CSMiG6RjoxmlUjdDqLdxApJVYFRMrmdUqNOyE9kkCkgi7uIo0J8agZSqJqov+4FZjhRDRLVhDn2KuIDT3rsWWPco0KcRrm+hc2PXhfAcX3qIMzwWN8u8QA6SsM0qQOJFVFMpOaXEZmimsSlmA7iOdCHInp5eVlE9f79+yWGHfph/JuJiYuXLmFpaUnWXBGBMtgHJ4pnEt9jRENDjEnRNQwseN3K0bC0VPtq2y9n9WuJSVEubqPpI64P1xB5fhJDyqNInMBvm0UJU9HYaYnBU0ZDKEeGoGaehIl/CL2xgajbAYY4UWgNd6HKbbj7wPUtIG7KeiiavFzTbLliQ3Gpaulzzb0dWIrSWiqiVKHuIcCCX6IV7xAbK9a+y7fhuHKTKUuCHEwdTlYvchpFcMk4yoSqyIEhSoniEVy/s4bm5jXYKILprQDZrAfXM9kuEojGqkGz3sTmpgfXMyHBbZAITCwwu0RRK6CCbY+8DqKaRKaIphgnBw/qdk5MEnpsdFQ4mjlq/n6QwRWcKK+TqQoJrrexgOtN7kBDmThmLj9VlUNcVoiKPrieS1IZ4Kd4ZyiPGlTRWKKFyyfiN4r5DiISjUmJvm8krgtjvK4nRHJc/mForFVwtoDbuIKcGOeNVQn2p1w7Pb4f8dxT0COE+nLZTh9cbxRssSHtuws3UbW3EQ/Vkc4dg5o6DcSjPodNrrUGusxRrl5F9+Y59DZXBZPdmp6D2f8k9PCMgOtp4dvtFZR3ziNqjcFMHZEJly3fQHn9XcTrl4EoQXH1AxQbW4iGZ1CbPgSYlo+UitE1hE7Hg+sJ9SEXkru48bNLcH23K7BdHqMIDhu5W8D1RSGEJNeGCRImAXUyJ2gln0QAACAASURBVA/FNhMfNOL2umqhP37e08mCGSZXe54UMdbbBtauAkN1wT/LcpQArl8l3HW6D67PZX1vFbVQ1CZkzVki0LZYcMuyVsl1vWgvC7jtVZTL58WX1ZNHYQmipzghuP69P0B26V30zCRQG0HUXUCn2EHyxC+j/tI/hkpGPbjepcidQXH3M+SdHvLldSCvUOVrwPR+uJd+C+rw80JIwolp9WP9NrY/+mNkHQubV1DtG+jFBslLfx/xM9/z4HoafavXsPPav0L92FdQI4Klt4XOrTPYvvQ+RjdXKI3RPfs6dpqX0Jh7AkmzBQwT2+bdHlZsIBcS9hPA9WHQSWRyMT/JgcwyDW40rGhxc2OAKljQg234nWlFEpZcTyKHiRQm02B7ITLn2F5wPX1avXQV5Tt/iOrcm9Dzn9wD129cgX3n/0R56b8IqE3WfKJCNkRw/W8hmj4k4rzSLcnUoH0bxd1zUCaFay8iX7iE6tpHSKYfRnzspV1wfUlw/Zl3kY5PoPbsbyGaPAa1cRPtN/5vdN75EZLj3xAXiEkBumWm61DdugX18EmMvfQNGILrP38TxcX3UXw8jnT0GDBKcD3FTYHq9nm4eoKRp34D0dhxWILr//x3ULz5r6EOPgZNcD0JlbcRrV6AmjoocFzUx9A6RnB9F7rbB9d/5ZuI9x2Hah5AOTIrQAOC+sTFi+6B68lpJHgQpyQg88MkEkU1DazBjZwsKcV+xiocC9zM3/xO4lM1kMD8C1we2g9+7hKZhKYFSQ6mVSuaubOM8tKbsMQHC7ieQQUg7W2hPPearMQXBIgkk4He6BFEx19ANHUE1jFYEiHONlFefgvb3TUoivz1eVRcS3XgcURP/xrUweckNWkJrq/XYB55Dk7A9b8k+Oho5jiS2xdhf/Qv4dZuwR1+XPBUXGPlwfXjwKmvw55+RjDRcdxAunQZ1Y33gbu/DAwRXM9qCaUsp22cfgnJI68iJ7h+6hDU4kVUZ36E8soHqAdwvSgeOlgeXA+C66ebUHkX+edvyIK3+PgLMH1wfU6jMKN/TH+bMJx74HoSlK5RcHVocJG7Ca4noR/EebI6lMQcABIMEo3fOWn4R85nHyRymAj8HfZJ22B4eXA9F4YNgOtZugEZInRgowoFPRNa0QwH6GEgnpJVDhTHaZkj7a0JuF4MM4liGb9ElGUoSq56YGmYmLl9SdkRBkRwPf3fPNJQx04jfuW3YY++iF6cole1UbgNoNaDwTqUgOs5HRk6rDy4ft8hAdcXZhw9M45y4iT05BwMQQRbC6iYN6Y+5GpFYrv2PwcXtwT1mbdmkB99yWPabn9yD1wv6UKmVj24XhbyqRpy3QfXc0CJ47YxEqt3wfXYA64Xo+pB4HpgFyGyl3jht2jwvh4P+wY/ZXIMHJfffZ0v7fqE5v4+uN5Xs6GfSQ1BjmYwgtZnANeL+8KzHVA0x+Ae/g7svhMCri8++SNEK4serMeZLIaWFYu7rE3CPPRNjL3wPTgC5TZX4c6/iezcGyjTHyIamhBLW8D18TBYRcCsLQm43m2toCw6UFc+hmJhFxpvu+B6jaJuYWen+uB6xs0Jrh+FG55FyRomxRoi1xM7Q9sEZuwkTPOQgOvpN5Q0ikcnYbkWe/M6CgHS+xy0cCXVQsBc9xcBypIbGql0lyqukeast/B3p6XiEcee4pSuzdoAuJ5risnZg8C8QcLxO7mT0B4yH+MF3AKHhu8U6SQej0eGIWVxYqXtff/1z981vChxSwYxDNfxMqTYB9dbohY9uJ4EJhPujB9G46u/iUTA9beRLVxGsXobPUPdUxNflOWXBFxP0N7wQeipx2HTIWCyQpKMoLp7BdXiWbjlizCTp2AiBdVeRu/i67CX3oZpE5kxBrBkw+o2sAuu5wSMPLg+ugeuT0VK+MBJETUkXBqpSmAF9BoFVBAT2srqQD7h3+DC+7hCz1gUXAig6Stz4+BSBPIsTneK7vvB9RWf0/iKBlJNyBFoSDeRyRovOgWpGUWid+nvch0ygyBcVP5lopoE46JybgFcLz/6/wWOpcFGcH2tb5zxcDg22J7fd3UyRSazO97V4f99p4fulfTgT5XsE8VsHMNEGoi0oC+5nigzCWr9mDAHR3NhmusKwkO0FTmAfujwHNz0CRTnbyDduO3B9fR/b/4M+Xv/DyKiMo9/BWrucaDWQHneobr7IZTlWiMrfjJnG1fCmIKi2IPridCgn+1yZryYbyJBuag8govp7m17cD0tecdgJjy4PmeCbEgGg8/KRbf+kRksEZ9Q7BTqaFkjpVhbhOB6JkSoPNiebqHPqFECkvuCcbXVJy6NMBIi+LXUp4NcymsKkZNELGfqbhpq1OehHc/nH61qnk+pQKnBjW1CO9nR/2+Xk5k5YbaFn/7PE5f5W3K5xIw5qM6huXYT6r3/gPLah3C9Vei1z8RQa5RbMJar5v0gcfZ7wc8IMgeGhlsA1x8kFg92/Q5U1oHOCK7/GdTGNUSv/iPYJ/4OouYkVLENd/GHgu9W6KDkSkOmC02EuKrDrG4KYjMfJri+QpStyyLyiMajLGxL4dImdN3A9RZQZqtQ6rAQT+UZ3NKCgOujsWOIpGQFi8ztBddTuJNyXNUZwPUU5QyvciTJ7T043dkF15MQHHwGM9Y3NgSSSyIHwgci7CUKfzMKxj8aaTyH3wMheR5BfbTKOSGoEoKPzHPDJAj983OXk2VBV1//lJJdEfNGHHxKL85wzlDO/lp7CdUHf4QqqQu+KequCz45sR2YsiNEYGyMKoFjICFE0fT9WlxJU+LD5DC1Pg/V2YBOmrLondwBAuNTBZN1kV8/h+zKJ6jbnqC4KEmYB45ak8hGD2Hn7g007nwG1J9G6XJJrORL16DHJmDGpz1YvzGKeHQO5c3zwK3PoUaPAlxdcfczFJfeACJmp54FQXvkRa7IFG7crZJAXdtPL8ri/C3E27eh8zlAp7KYnvgK4trsALieg0+uJScyBEldSlFNn5YEGSQKicON+8idxF3PLyxIeJMRL/ZDa7vIcwHXU7fTsOMECC7UoG4O/QmR+cNHoeh7ckZ2ZeFXwaCHGFDeEBOBJJQm5RxcbxPgXz+xv601tk0Lo4qmCHmK1XpSZGYIiU7A8kuUELTX6ZIRXG9bE+hmpQT+0+FRqOkDKK9/iuzsW4g728iyGnZuXURSdeDiEViKYBYuMzEwchDmxAtof/wT2A++j2T1stQByS98KJyZPvw1qMmj4p4JuP7oy1CLCyg/+mPYrA3bnER29UOo21fQOP4VRHOP7wL4ClVDVzVRQ+JLRskk10A6jrJ1Er07H8N+9MeIVm5B7zsNM3sKyiUguJ7BJK/PRckJwVrNJhZocPVrgJArScywBe4TWvTB9ZQAFMk03G7evOl9bQY/ul0JpjBxwcnA1RTsi5OHBH/QtiuuxTtWMaKxw4ge+jpKli8iuF4QIEwOcDLQ7v7ixjmYsWjL8Cz08P5+GNOgHD0Ie+JrcBNHYTVXEwadpYCRGbhTr6DYyVAY5lKb4r+Wmz1US5dQfPouqtoYkpk51I7/beQXHkXM1Qq8BwY3WtNoPPpNoCyRz59BduZH0AJ8GEL9qW8jefybQHM/IrpOpgl18ptQuULv0hsSLGH+u6gMhp/5DSSPfk3um0EWET/NfXBHX4GeeQhK7pu6E7BD+6Ef+Y74+8XSBeTrS4hPVqhPHgbSBmr1umSsWBwmbCQoa25R9DIoEvQxj5M45HLuD/Fp7iOxSUAaaywcw+IvtMwJrKc0oCRge36nOCcH0xf/sk29/fbbjuGz6QMHMDk5JqITm3ehuAREIKm8GwppIie9SHlQZ4K7jiLEI8ckP1ypHG5nDYpA/eH9wCiD+VwyShhOBDABsX4dXHNmhvfD1FmWooBbugW7ehMV65NwDdPkAVnHbNfb0GMzQGsMLjKSs9Z5Brt5G+XKNdjeslhipjUFM3oUami/Tx70b5lrw11nA8XGdZQ7d6QykUrHkI4dE1CES4lOKeQR87yAXj4HUx+Gmjwl2TCfTGUfK6hWLqPcuAFL3PX4cZjphwXI3+12wKBOs9EUHRq4lTqU8WkSnEQO+pVEorVN44pEDWKc40tCcwthTlrTg4EPHuf5QUSzX57Pvj7//PPd0Cj72CXyDIm8b5+Ibs+x/iKStBLcsjdGvoyTaZ2L38YcLlfjE8/MJD5j1ZpVgaRSquCiRWSLi8Ylat6iF3+U+2j0sDqQRN8iD4CXW3HIOTmUGwDXE3etUTCxQTdHjkVinYtqkESGjJUYjJyo8jws78Q6YQTEU6fS4hfcWCZBllynSCp6BfQcaNDRherX4rSZGGYly/mJZZ0It9NQYEFYUUh7rNxAMH8n3oLmd+7feyxMjNB28HNv28Fj/M5zOaHOnTt3H5FFXHNpx9ryMjpbvp5Uf/J7a0t68qJ6b6e7v/m8AZPV3+l90+B3cjx8rxwEP9h+uvi9fp2VnCoWD9vTWWdLtmMrkpFKhVPE672Qa5Zfgt/iCo7g03trUSSMkMtfafeheJgZJ+kxKBLvCtGe4NTzbT3hds8TcAXvwheBkTQtb5zP37+H3XHpDzyJE4g3+J3twu9fhICD/e79Hs4nd+9NegiRra2ws70tf3tP/h/hdyAf7/VBkuZ/hGf4//IeA8FDn7uGF2fAX4dtkOB/HZ7nL/MMQWqEcyV2TUNgZGQMTZbupcIX0cvcPwUh61/4YJ+XYBRfNJ4oov0iMMJ12I6ClLU1FTM+IgoZHGdhFV6OKwZjlP3K9RSIXLfPIue03QmzDVwYPuUafWHNHnRVeVRI3/1g6FTuTEpHUPDyPlgZkNE7rzD8QjcWNfcX4LXkHAIJZBWOVyCcHCKgpXI91RPhyRTB3lIOrfj0ci90legSEqVCe0Ri9iLEd+UJOSoYRnJSXzyH73s/2X4vgf6iNoFjeU44jz4zF6/TSAubcLI47SMtTOybEquVaEkWXon74Hohuigcb2MKikOiuowrET1JZEjpIyV7K9e7EgXreRFXZY2USiSOK1Su92UauVCtvzA7ULh/h15L+glgihw9higJuyUWjJXr2V5ixgT3M+PEeyJclmey5CKJpJETFy4QNV80gkSjJub/bCkEJnn4KCS+pg3AiSO16OU5g5TgWRLTFiLzmyQlfZqRvcorEbxRFaJRYcD3fgbC8jN8ZxsSLRBx8JzBNpS+e/undc0F718gMi1WqVJPQknlelaoJwc7SQUS/C6ljliPiyA7ljkywxJo8OtWOJM85kqxsmw/ChwVBUyvI0tAWS4pYkgzTlkLQgBwzDhFJAZz2BL39WYQYbnkEJKWcFcaWrS6CbMloVhlPs6JBVuBi2so45YYZVK53hmkUrneM5SEKG2OtFgBWVcJJIhhSl7DTx5BgNL/lqr1TESQvKzLpaAlCnZ/5XrvUNLS95OE4SLxEUTlcVLdz5GB0wIhB4kWODC0CccCgbmfxLyPaP1gSpAS4dwwAfg7fGd/u7jrigF74qMXz6F35k9RrS0iPnAK8ePflkXi9tZn6J35Lyg3b0PPPYzmU7+CeOwwHMs1UBjTHQHjybR5gVbZgbv6Idxb34crciDJUUQ7qBoN2LGTwP7noWdPo8eyEjpGvaLw7tfF6ke/yWFiLXMCyctLGIVziKoSvYXz2PnsJ6gffxrxaeKimZ4jF3tRYLVCLgZ6Cbd8A/n7f4JkZAK1x18FWrymj8rJRGJuOlSuVx1kV97Czrn3EI3OYPi5X4cbPiAszmCJvHyFFVJUIjY+CcpVFSTC2uoKNjfaAgsmtothRw743o0EoAVMzDX9ZwY2GDBhUCQQiOeQKxm+5B/9aRKbqnV0bAwT4+PiW5PQe68RJkj4FHEteGFSijWjb1+Gev8/ILr9mVSux/7HgeEjsFc/hX7330OvXEb3+MtIjz6CdHQKWlkRwaxax3VHfpAtULXhVs4g/+zfAfUhYHy/hDpdtoys9zay2mtoPPltRM/+MjB5TCQHYSeytqgPrt8VorJMxed5JQ5uS5Sbi9j5/C2Y1iSS02RSvwaZeSeOK1VOLv046O1lVJ++BTdzDHjohb6w9UlEL4I1WOua3jB5uFy9guyTH8PMPAI8+m04VrrXrKmyAdvdhq1SqPo+WJZRFmVA99pibW0D8/O3haYcfBKZ24OIQKLNz89LooGBDAZDSOSw0d+lbuUficvjFM0MdRKUT1w3AflMZw5ybTh/8FOI7IUOxS0D7IXU32JFAK4m8EqKtTRYfpHlD0tkLGUoqwe8GKPWIveywDj/Z162iiKUiUF7dAjNJ7+JxrN/By6eBLq3kS6cR/HBT1F++G8QtwpEQ/8QVToVhB4sc9h9kUdDkIRgmWLmuUVuKAOjMjSrddS46J3VBFnekZJAFqgRecrVFFyMxn28/03E6PQHXMvrEBRhvaG6EdGmsti8hvTAkxj5WoWotQ9oDEmokuK92O5i+/O3QcE0+tjXYcbmRGQL+FGMJiNRJ4YfCZUlt+7VmRx8EoVEJsFClCuIXh6j8cSYNAnM46wdwoIybMNzWNGeuGy+3oDEZ2j0L9r6LhRFDivXs2RDhCKOEccaNk6QRr5yfREDZcLyCaFyfQusTi+lDhkMiVjHwlvXPjDCWDULfg/Bto7BTT4JELXhTgGTzyAqWui98X+gvPMpXLYG16BUoMlUybukWKuYHEnbm6Ahv7iOxKGRw3RYhVh1OfSMeUkMW/hQKtcDuuxXro9ZeVuhiAuYyL/kiCUruDKTdodAiSXr5t9EE7kG1AEWR31MdLiNKEJpwAF2cwvZxQ98guXkkzBuytcDk1wyXzvAyj2pvC6A9ayZD2Zqce9GzgwwXHL7oL4lkUnIAPAjFoxx6RAKJUFJbE4SinHGxCnu904mMkZQFAKu500wcuPzycQuaS5wFIyzt1a9YcTqyEzU07IVC1K68ZhqWpism5FYYpzZH4twddHMuzLgJDgvysRAyVcRjBxGZIag2h3EPYYZKUkq6KoN9NZQMVMksdkEUW0cUW1Mslpka1kqSsw1DUUSuNhBtbMBl/dYbBq6MQarhqFV4l9pJJXriRziK4F6qBh/Lpi6tIjSYanH6ZKmj2KJMZWg6LuFYqLxzThZBt2+jeH2NVRxDL29KFk01gsFX4NEScNImY4wPNTA+vqaEIH5XhJlUGST+FKErV/+aWuTOep7FjWPk3gU4+TgQGC24SRgtolZKmanqNcpsgclAdtIW/m/b3hx4AhMo4sTVxZRbqVCvcsK6HwHTK5HQiwSQSGVivbbAtqjgUMOkpd+sZIlMzCqRMQEAzIvIeRlHzSjKCwsoiKDy5dRqg5McwiO1euZQWKBl8X3kV35AJubW5K8qKsemmMzSB96BWb2GTjnc7EVa4Rpg1rnNooLb2D7+jUB1yfNBPWjDyE59iKq5qxwOf39iMt5ejvIb/wcO2ub6G6uIXE7GJ45jOT034Lad1xgxFw1Ua3eRHbhLSSstnvsWdh8E52bn6L3+Z+hvnoZsYrR/ejHyEavItl3BK0jjwGs2U2RrRWGhlrY2dkWIs/Ozt4H9SEByIU0qsihezmQE5tSgDWvSUyKa25hkvB8fg9GHScLxTv7CW3khIH/vOEliXJqQdF+gsisjIbbXoOb/xgWXYC46WJHCrfozgbcrY9gaVFHfKmHf9lHFY+hYiHyGjFK1O91qXttmBAoaXVaIO8Aa4so5z8RDtAzD8PWJqR8ITNQ1Rv/Fnbxc0QTjyEZmUHavivpwXJtAUPfOQTVmhYBzlf3FaVCMX8G+cY2TMXF7RHclavIF34u6Ez9yLeRxMSoFSJd3NJVbBc9IJlEg+nH5U9RnP9ToLuF+NV/LMtjyBF2fR7Z+/8W+uQrcIefgisz5Ft30Fm/jTjLkVQZiuWrkttlkqM6cByu5t0/xlxqtboQgSKXb4wJepfjTtFMfc3rkFPJtYMbiUxsFzeWhCLxApeGdiQ0+yTgj3qfRKYY57mBi0Nb6Yf/UTXR3fCV6+mIsiJlBcVlqq//PsrGCKL1a4i4ZtlapBsXYV/7ZyiHp6R2pSvpl1l0R4+i8Z3/FcnhR+X1AVY3oMoCdvkSupffYvpFXnOQLV6FW11G48TXEJ34Kmw6IgvZs/lF4M4ikhMvo/b8P5B6l3p7Cds/+R10P34X1ZNXEI9MCRSI1QNTjk/eRnz0BOpPvAgVx6g+fQ35+z9A9cmPEU09BkWgPysi6ALVyiXEB46g8dJvQrFyPZP/f/S/ofjZHwInvoroyCueG22GmLCmckdwXJxYI499Hc2hFqp8Q14mMvytf4j6zGmU0Tiy2jgTZ+JZkJtZ8Zdilm+ECS8CCRxLDt7c2hIAAbnxQUTmRBCrve9+Be4NhCPRKcLZJ4H4/CMXP4jAu0QmA3MG0hCpCKz2iTWYso1y5Zx/KZcjgE5we0jKCuWda8DSdSoJkbS8KTt8A9XLvw2HJ1gwQlbnx9kW8ivvYru9DFVaJBuLfp3xQ1+DfvLXgKlH5NU8JUOhs9OIXv11FAefQLHvJFKTIG7UYPiisQ/+X2BrUfxlqgNNQtCCHtkPdeJryKYek5ec1E5ZpNd/Dnv3LMA88+RBMdqYb6pak6g/8nWY/Q8jiyeQN16BfuS7qN76Peir76F24DmAoLkQ0RJpZKROt2rWYIfuoEybUk3BDB+CHTmOgsYl42KsDcZgD6HAYGnQIRHTNI5oPFH0ktMoXvMsw/TUlBhMDyIM94lWfYCPHQhNovKPE0LA+AOhzdAmfO66UNTFJF5OF5dLPqk/CSmWqBfrTfoIRSTh7AhqaBq2PiIL1+zGAtIskxysxLElTMylKSwlkSAamUJj7pSsyzDr0yhW51Ft3Ea5No948hRs3EShI+gDJxBPj6PSTVllke+sAay6Wy5B6U0x5Pj0stKSocfUQc/MQY8fhNNN/6a54YMw43NQC+fhdu6gsswRMxZt4MYehpp8AjB1sa6r2giquSfh+B6su59KETcpmL4LridShFYkLXpf+phvfWXMm68ikndCUsmxcCrfPqWZH2dAByJOyankZnIrfWASmUTn8hYe2yuGA1FEt5LQf0HSSCaHxN89sfdOFv6WfsSpZc/cQbLydbR9zJbkYQl19aMqoTGqVD5zMToD/dLfg5p5HKp3F+Xrv4uYg8rZRC5gI3nbKpCnE4hO/C0Mfe03YNMmqk4b7txrqN75A9hPfgg1NgtTf1kA77Tk3XYBc+dnqN+9IS4Ll6OyBCLnGMEHAVzP2Hpes0inJlBvDKEhfjFDZA3Bb+Ux3blteS2QlIHgis3mQcS1qX7lei5uLeFadV8cvXMXeT+JIc+huEig6AMGCGKgjUHqcmU/33NFlIsfEHIvF9+x8LpjARzeRr8M8tLyshCWwDwSm6KaBA7RrUDY8MnzgjXNScEtECt8535yMD9FbPchuYHQez/7pZCdAOsJrmf2RlZNcFgpwsUdEvrLQHNt8M7oATSf+Abigy9AtRfRO/MaisWL6Bi+NaWJhLq3oh+ai29mWaOjMQuXDgOpQ3QcKK59jGL5ApLVq9AHnobhIqvVa+h8+APg2oeIVQTTOgxxbbhwTnkXjA/KGtQizhi2rKW0UGTAo8qJVZpJdd5UAif0ceVRxCXWfu0bkw5WocZACUp0FFdTEGMtTTmd5E9oKmgPxqb5+gYHU1G/N1Bpvr3Or6TwaZoUsA0oln/sR91ITBpEG/3AyKCopuFEIg0SkM9G7g4WNfU3jSr6waFdICANLhKakyUewF2zj71bPxjitRCjOqJfRD+Tu8Pjym7xpdmBKjNg6y6wcQNu+zZctdNfdeERIiLqJX6VQdMyRyFxXsKB5GXWjTFg3xEUC5+i2liSdcMc1/zym6jO/gis66Ef+5bEyMHKsx/2UN34KWC7kl3yCBEgKhWiDmtlWpQx7z6DsjtAr+PdQU4M1t+MUriEMomVZrd9MoVJFPqT7R2uyJXXAtEnoOFUCErVV/plmJV/HqREzEhP3pchdU1o0IlPQh1GXewhSDJwDAWlqbyJjdErAu4GrepAtPAZCMPfPI+EDVExBlQG23Fy8Fhws4JRJ7R5gB7vE1kO+6Sa6GOS12cOuV6InC0gcgZCrENr5Rrca7+HcmwWyDdgls5Kif5WuYmoomMvfNZ/cM8V8j/LIOucPgbS0YNSocetLUJ3WX6pB3f9LFSxAfPkC6gefRU6GYFqL8FuriCyrA2SS56agxixloceAfjW7+1VZBMHmFdCtLOMau2WiMuoMSrFW12tBdOow+0sotpZguKyVaoWvtyMb5ktFGJCayVU2+diTgB5QaePpwsHCbi+Lfu5UoNxdKowhn6dylAaAux9Dp7tyZUMWpDIXDDOAAcNsAeJ6sChJCbb0HCj/uYff5Pw3Ehg9kNdz4kQgi3h/PApjfv/DRCZUaxMShzJax0ociieKK77BBc8k4IsR60uvg3FksRM8pU9CUGCxUSrXFKNAnzrZ1i95e4XwlFe0tCiMZYkMdzWHbjeBkx9RIBwpYuRFNsw2RJ0u43epY+QXzuLlpRhIhlFGMIMTaPadxxbS7cwdPN9GNY4sTnyqx+hWJlHtG8OemJWwPVojiGaPI7ywntwl9+HGpqFSkfgbn2I/OIbUDx+6GmUknDovzGGGC7G6EUGeT7WfGG4aaDa2ka0ehlmeByIhmDjGI5Va+in9kV9IDIJSgKtrq3JODI7FcQvCcp2g4ThPnIudTgXsXOCkFNDVIuJC+5juQlZaxXHEgblNQY5mn0G7u+HNVkbi1kWB8U3q9Ra6DHMRxQkzfRQ1HyXQ4Mc97O2MnX0TIxOcxbjfHEmF8c4g9K00K1NIY1aEtT0Zhlj4UbWDRfjh9DhWqYsQ2MihT7yMKpbl9H98KeI7l5HWTTQ21pHY3QIRfsgtEtlLZIUfxk9hPTRr2Pr3f+Irfe+j/TmB0LkauGGvN01efS7UBPHJY2p6mPQD30LrcTS/wAAA1hJREFUdnkF2Zkfo9q8jaoxjmz+MpIsw/BT34XZ/5joemJdSt3EdrIPrWhEkhwi1oknaUyj3PcMundfl9czmGufwBz8CpITL0Lphk+z9onGAQ4EIzHIkSQ4OZvECAQIn4HY/M3j9LOpd5f7iQpyLo9RT1NUExlLV4yZLCJ3Dh08KNxP5hU5OjB5+vlkpua4sqGJeOYx1J/7LagTL6Ci4STRMF95hxbmfZu4M36P0hHqzXFE44f9jCbYfvok4mf+NqK5RwXaSi6WwmgUDaMziJ/4LuJODrDCTtREevpVuCxCuXAO5VYPdqiB4SeeQ9J6FcXVeWD6EQEXMKHJMGL95FdFxWQ3PoTb4isMKiQHjyE59AKiYy8A6YS81Iyv2lUHX4T+ah29K2/DdpZh15dgRg+i/uh3ER95Bmiw1jdfwgvokf2oP/Xr8nY5xWpCUmJDwbWmET/xbdgkglr6FCWLtne3vNMUx2iOjYhaCIYTCUeRTagzDShmjCh6A2F5jIRnLnlvIoN90L/mcRps5OBghHFf4H72sQvPuo84936o115/3aW1GmYPzsn7ijQRF702FIPyIS0urtG9k77wTQqbUjxomHRclqhaguvzLkx7Bao2iqo5Ko43YUCC/GDxciYKOG/SUZjYv8sQjKq1uT8Dak2Y4UlwArmdDK4+LPqcfip9Oc230fTaKNt34bhA3Tjo+gii2j4gGfESo3+z8ordMkPVXYXN1qRyAt9OZ5oz8voCvmcZfE8UOcQqRO0FKJZrkjAqHf++RZ9vw+7cRbmzIgv2GA3TwwegdIqizBm3RJImMAOrKBiRIteRQ0m8IFZJKHImrWSK8MDhgYCcDNTBPB5cJh7jfn6G73xEimu6U71eD2fOnpXrBToJkbmCYmZ2RoqoSpA9HOVYiiL2CXlakA/chMhebzF7RSOd4QFmZWLiv1j2QLI7km0WDU+UFCWDt+EZbeP7jAViJ9JR9ktpC79Eh6Y9i5pz4wu9JMuFxBdhlWv5HmVxLJ18Gk4s4ip+kL9/URecsFL8lJONARuPEOHAsbIA77xQSX8RAAUZs+V8KB8JpKfAe2NxWA6HACUI9iO4Xmpx+pYPHKf+zsDJgZhf1ja0C8f3tg/EDsf5yUlz/vx5EfVh/38FQv44KtBdbrcAAAAASUVORK5CYII=;" vertex="1" parent="1">
          <mxGeometry x="590" y="593" width="121" height="76" as="geometry" />
        </mxCell>
        <mxCell id="WUVt8O2-kMxFH5hkAYIA-36" value="" style="shape=image;verticalLabelPosition=bottom;labelBackgroundColor=#ffffff;verticalAlign=top;aspect=fixed;imageAspect=0;image=data:image/png,iVBORw0KGgoAAAANSUhEUgAAAMIAAABKCAYAAADpAouEAAAgAElEQVR4Ae2dZ5Adx3Xv/zNz8+YMLNIiEiDBnIMYRIqkIkmJlGQrWy7KLpU/OJbDBz/LLrvkV6Vni7JfWfKTZGWKshUokQpUICkmkWIAiQwihwU25733Tnj1O3NncbHELpYUZAsL9NbszJ3p6ek5+ZzuPuNs2LAh0plyBgKnOQTc0/z9z7z+GQgYBM4wwhlCOAMBSan5CIUoOmPtnWy8Oo5zspv8jWovNd+IBoTV1dWptrZWrlul8KJQkSMlLAJa43cP5NqFlORQJ1IkV07kyLF7Qskqx+eiSh05npzK328URn8NnQmCQL29vfJ9/9fQ+m9Gk/NSI+TzeTU2NsrzvGlQjhRWWMFYBK4IpQhp55QVOo6iKAaJ64D0QAEMI8lTSm7oynECq8cZ1zhk2iPm4U8YYWBgQOVyWfNVM8xLRoAWQVi1RoABYm0Qq/iQOkEox/UVuAj9SPL7pNJ+RWG/MYDrtcn1FilKNSp0XYWeI9MDaAsHpkAnzP8CI8z3Mu9Mo5kQhttgWxiaQSNX8uWaGeSWDyscfUrh4HelyecVhUOmBgK3Q152rbzG66XaaxWmOxU6KXkoENEOeuV0YIWjUJ1vpnTyZvNSIyTISva8rBNGikqhomJJYSR5+bTclCMF3Qp7vqZg6EtK+RuNNTB7nCiQgr0K/BdVKr0gp7RXqca3SdmzJCcTMwAq5jThA2DJdsY0SljnFNib6R9JbhSZiRMGkaLDY/Jf2KvxPd0qe54az1qk7IX1Khc/Lw18WtngoBDw5icoqMh6ZP6kvGCj/IFxBWFJbusHFWa6Yq1imuEUAMiZLp4QAvNSI2Du4xFEYewa+71jGvrBRnkPb1F6aEKB62n80JDcFZ0ql36sfNgt15FCN5IbuccYPOZXRKGcYL+CsYcU5s9VymuXvJrTRx2ckIxO/QpV8cVT/2XsDWLKlcWHHMnzpWBHj9xn9ygzOGnxn0yQllsoSG6/5B8we58IKvFVB/VvDR21eQCSF/lSebfCiWfl+H1ypuJJrx1umBphGApntNqMe+0txncmZszx9tSY6fyv+txT+f755ywbQcchTxse8AOVeobkjU7KiaSASI/ryFlYK9fZoozfa+dDIkcRptCxhn/MDnHMyY36FRY3KSwfkpNdIMf51RRqqVTSwYMHNTExoaVLl9rYx8kiJogdJrPIFu9cNSBGGHRoaMiiavX19Uql5vYetDlfy/zTCJW4P3IdtIWeFDakNdmRV6kxKyfrqZyP5HamJf+QPH9CTuQpru8ZB3GfmVb8N9w7iizEGsoN+qSwXyGDbRHjDlM17Z6YBedGLoODg3rggQf0uc99Tt3d3XO7aY61YILR0VEbCIPhqkt/f7++9a1v2bOHh4ePYZLqetXH85kJeM+5iYJqiJwCxwkhl8JQA4Gv4SVtcm46V8HhUeV6h1XyJ1XodBT5B+USQiJKFMZjAkb3EDeDa8Ye7BmSjuREriKiSSrZb5ghkbSxSYX+mLsHDYHu2bNHW7Zu1eQkZtvJK7T3+OOPa8uWLbrj7W9X17JlU42jgTjPCHyxWJw6fzofzD9GsMGCQGXf17axQA/vG9aekZLq6+u0oK1ZS0NfHW6gdOuEvOFReW7AyJrMcjAnG1KG8Bk6Y3SZkxC4q8hpUpBep5LTIS+U0o4Nyxn9xPoHw+rVDbIx6OfayHZshJ0MYoQ5MX9eeOEF/ehHP9K11113DCO0trbqt37rt8wkamhomNdh0bnCcx76CLixofaMlfXNneN6YN+kjpQcuU5R+WygpRlfq/Oe3t5aq8uzy+SMFZRyRuWEyARHoVMWcSOH4WZCScwtwsRym1TKX6HD7q3afqBWhXy/1ra3qimXFhM5zLRiNNuUh+kVIzDMk5GREQVhqGwmY1I4l8tNaZJqRCW2+/j4+JSn4nqeCvm8+Q/Y8okGYt4P7SLdMYNgKK4XCgXRPtdGx8ZM4mOC9fb1KeV5YvoJ11evXm1tZTIZ6yf94Pn0154fRUql06opFJTNZq2b89k8mn8aQZFGAump7nE9dKio3X5K5ggrpf5SWoeL0kvDgWpyjtavvEGp1GMKwp/LC2PTx4GqzcKJ/YNQaYXuApUL12i/d6u+vX2BHtyyU425lN516Vm6cfViteTSRlRmQtnNkRHVzp079cMf/lAv79xpphREet555+l1r3udFi5cWM0Ddpz4DM8884xFkmACz3XV3t6u17/+9XYvRAzx/+IXvzDT58iRI8ZkzKvi2jVXX62LL75YP/jBD/TYz3+uffv26Stf/rJ++tOfqqO9XTfeeKNaWlr0s5/9zOpfe+21QivAADz3iSeeMH8ljCK7vv6cc3TnnXdOMcsrOj1PTsxDRnA0UAy0qdfXgQnJdyOZKxyllI0wZVxNuK66x30NeatV0/w+ReN18iY3yC11y4mQusw4ZRJeSmVviYr5m7UzeIPu39age1/o0faBcaVt8p3U2Viryxa1KoszDQPFykD79+/XJz/5SbPFV69Zo/q6OiNKiO3QoUP6nd/5HSOhKSmLSec4JtWRwEnEB+Z46qmntGvXLv35n/+5urq69Pzzz+vjH/+4MQuSHamOvzE+NmaT47D7e3p6xL34CjjiaBDGVWAiJtB973vfMwa48MILTdvAWP/0T/9k0aQVK1bYtYnxccFo9GW+l3nICNJYOVRvKVQxdOU5DJIh5plGHSgb+lpen9FFC9PaOTmqHaX16sot0KL886oZf1LuxHYbPJMzrjC9WOX8zdpavkVf31TQ9zb1aOdQSb4j+VGkZw4OaMOBPq1vqzPpWQktmfR85JFH9JOf/ES///u/r7e97W1mkuzes0efuuceffe73zXJ3NzcPGXqQGhNjY1685vfrJtuummK7iDmT3/60ybBIejOzk7TBJs2bdbf/u3HdMMNN8SMUC6rODlpphEzb9/05jfrUHe3Sfj3v//9Ovvss83E6ejoMMaAQdAglLGxMdNcaA8Y9OabbzZGwFSCCWC0+V7mnY+AVE67jrwUNj7WPpEdpKGnyAm0rsHRHStzyuaHdd+B3eqe8HVWbaMuarhW59aercWFXaqffF7y92sie6m2TF6jL25wdP+mQ6ZFAidt4w6sR+id8LWvf0Tj5bKa8lnTBjwfAjJTpKND73jHO7R48WJjDmL2119/vf7lX/5F27dv1+WXXx7TV8VZxsaHiCkQIO1g069atcpMHWx3Bt9gDh62YMECwUyYXNUzbbl/2dKlZn7V1dba/eeee278LEmHDx+eOuagf2BAGzdutHq33nrrlP+Q+CP0IylTGiw5MU/2808jRFJT2tOSOkeFwUhDpbQip6iCyrqgOaW3duWU9vr1wKG92jg+rkk52jV4RM+NprSqplYXNlymS2vP1fLaorYN1Ov/PTusB7ccUe9EWZGtb2D8AD/CE3a0H/g2ic/molYCP5gfe/futfUQRG62bt1q5IJ5glTnOsQ43eSAyPv6+rRp82bt2b3bTBik9dNPP23OL/VhFqQ7PsEnPvEJ/fznP9fKlSu1bNkyI2CYY2odRjwIcgypJsRdfXJ4aEh9/f264vLLTRNUX6s+hgmOd391nVP1eN4xArH/hoyjS9vzeqF/Qs9M+gq8SJe2uXrrsoKCaEQ/PLxHm8cnNOFkbCR50ilrn1/UkaGyto4Feq4uo1ubFml8xNVzB/aY5I/cdCWUalxgC3p4zoK6vDIpmO3o8jckKBvEfu+9904RD4SENMdZxUGdKhbyjcx3+Pp99+nJJ55QOp0WGgSNAINAgMl2zTXX6KMf/ag5zNj2OLhoBGz73/7t39blV1xxXOd2JkKmr6ViUTU1NcZE85XYp+B9nIN5xwi8Y8aNdElDQeXlnhqdXnkZT9csrlVfOKCf9h3UrvFxlRyio76NB7DcBh+i6ITaF4yrb2hCrh/pikK71jQ3asuRoso2ZBA7tNRNhaHWtdbrvEVtqs1m4nlKlYATRAkxMW3iLW95yzE2NsSIzY1Upw6/KWgLtMf3H3xQa9asMb8C6Y7jTAQIZ5nCPfgJH/rQh/SmN73JnNkDBw5o67Zt+t53v2taBlMKBpqtVBM7WoYN02u6lpqtjfl0bV4yAjOGmjNp3bA4p2VNKfX7ZT0/0KMH+vZoVzApsbrMFtaUFLqsPUjFo8bIfCdQOZC2jo9pdV1Rt5+3Uikvp+19wzo0MqK+CV+hAp3dltNdF6/U+s425TwG3+KpFhAHRIjEJ3pDqLSpqekVNAOzJNMqIEoYgWgS0Z/LLrtMV111lbUDo+DgoiGSgulDm/gHa9eutecwbeLggQPGMEybwG9I2qUfCcNN39Mm67vxTdBgyRgC91K3ekuePx/3885ZZhCAeD6jtfVZV2vTBT1+uFtPDBzS/nLJQpSxNIQZGDCrxDyZkRfHlmwQbTgqaygs69bFGS1pbFDPeL0Oj/ra11dSqSytX9Sia1YtUkse84qCtkBteCbFL7roIn3xi180+/66664zk4NxARwMiCvug91o/2AMiB0ziMEwojqcw0fAb4BAcbAZh4BwMWfQLNRJHGvGAviNdIdZYAb8EaZx4CxzjmdQv5ohYKjly5frueeesw2mQBMldWgzYYijPZ5fR/NSI5CJInQim0gFkR4pTuiQX7QJE2gLo/141CzGZsXJhZjJaMHIg6e0ap1QfrBFwyMPK+emtLqlQxd0dqm9Zp2aCwtVk84qjYll+oW7seMJVrkWBv3xj3+sv/iLvzCtgIZIpCwS/o477jCCpQMQGcSL04udjl+xe/duC2+iJV566SXTHsT5G5ua7PxDP/qREXrCPDjnzz77rN73vvepra3NCH7JkiX2zM985jP65S9/aQNzhGazlbBpQsrMObrlllvM5/iHf/gHPfTQQzYCjpbCDCOkOp1xk3vny967++67/9d8eRneA4QVagux4+d4CqJIW0ZH9PRwn0Yr05Jnel9TCqxJkKsGL60r69Nq9rZp19BD6vd3a7C4X4E/ogV1S9RW06mMG0954I44E8bR6c44ujivSHQG15huzTHSGImOhIbokf44z4wGQ3RcYxALwsbEgagZ/cVBxudgAAytsXnzZhv8QtrDLEh//JF3vvOdZkoZHAoFZbJZG8hjjAAGxZSiTfqyrKtL5593nhE9zNne0WGaJmkTMw0GvuSSS2zkGcaYrwzhPP3007FNMBN1nGLnQVR7R7va2jtMysIIj/Qc1v/esVHbShNGsFMKYPq7AYnKIGpXIaOPLqxVg/+wtvc/YH5BFKbUnFmmSxa/X8tbrlHKraxdrmgX2o21Tez8Yr4kc404xtxgEAuTBj8CUwX7HQJLIjaYRESWMGnQEpxPHN+kDRgBU4n7qAdzwQgwH/UheM5xnXr4DxA1dTCDeD7nqQfj0Q/q82z6CwMmbdJf7sNZ5/p8LfPSNIoX2MTkjmm0rFBQVy6nl4vjKkZMrHOUcvzKQh1Pnq1MY2EOaMbWj9TgplTvBSqNktolns/vKq2abLPy2SYbR4ip3sjf7j067zQyIoPw2ZjtmZTE7k5+Q+ycSyQtRMfG7+l1rXeVKBMET53p9ZLfEDltI9HZkpI8KzlHPQp7GA7Cp79J2wlDUSe5N2lrPu3nJyMgmVm8T1jSkdrzeV3c0qLnxgbUU5ZSgSvfdVV2Q3ms5ALJtmaZfai60NFiN6daz9WRMnlfauQ5npoyi7W88TK1FBYp5aRslmpljt2UKjD2m5ZTqZpgILC5lJnqTT8//TdtJ+eQ9HMp1E+IPLk3aQcGSZhlLm2dqnXmJSPESDyKkpyX0k0dS7V7aFDf7T+sUVtZljFzh8x1bhgoFUkpk7ahVqYLen3bAi1rKqgxfatah1cp5abUVr9cC+vXKJdqqlrgf/yFONUEdbQnr+5orm3Mtd5sT5+pjZnOz9bWqXhtHoZPkeoV59V15FY0w9JMVh9YvlaZTEr39x5WP/N4AleBk1LAwhwFSsvVWYU63dW5TDcuWKSatKOOliul5kvIDSPXydmYQ4zoeCnO3OT7qUga86fPxzMxp7/dCTXCKedJJ2uIYxvFFspg9geOtLymVnd3naNzapr1056D2jE+plHfV8aRWr2s1je16XWdS3VBfaPqLCiKzcRAVrayAto8CAuT4h/8t0pLey/snioUVpCTnDoRrqg3Vady01G/pqrd4xwmJtJ/6zsfpx+v9RQBBt49gdX0dmZkhOQmFoZMhUKm333M7wTEMz2KykmryY3TfyfnX/seRDnVWbArTZGylwGv9lxOt3eu0FXtnTrsF1Uq+SLhXX06rY5MQTUpT64Tmt9gSygrwDMisnUKzCni12zv+dr7P/OdwKriz9jAH34Qo9mWxVg2Bdy1JDbWNwIGFgKrZO8mQYFlMmAdBWoyAiKWkWDmRyaw8zxbB8Ekw1Ox4PDv3bNH4xMTM3Z/RkZgBDSXz0+F245pIQoVVuigMiBbiTtGckgbYbTCEkfyBDHcFCOMgS4kUFwnVORCcDFCThZZwQhEP1I2BZteV2x4plIwp4gHOdLiVEGLncIxrxWLSxbu22JNq3oU9TZebfUTqXiy+nxsJ47/i6fHrBDLE44tYUDoGi5Ct2RrrMOgrCgqyiXvksuSpIJCJy2Xd3KZI2t3vqq8rWgDIlmnakEbnChwgI943IJdxaglc1qqgRDXjyUmx0RmQIgCwo6kTCQGE+cBIuMDtjfAZ04PI7ZMQfAiIi4wEy3E0Zc5BlOO29c5naz2aWeiYDt/rLFwtGp8dPT3nJ560ioBKRvi4KCST4AcTWQwC1WU/CFpcpui4maFfrdNDXdTHXLTK+XlVirKLFQI4zuuYQGc/M++0UkDzQkbSnwE289AaDNrhBmat6lllWwPsapG6gNSlsz7Jo2c8hFFpX2K/O74t1snJ7VYSncqSrfI5yMb4ND0Aw8Cu/9TJDbDi/4aToMI1DTbbKXaHgcyU4UcrqSy52TKq3zPwZczudkyeUcjP5Rb3ik3YuCLZ9QoTC2Sai+X0/AWOYWLFKVajRniRuY/zKdgxwEC+2QxgkkjEEE+IAaCKolzkU5uOKho9FlFIz9VOPG05HdLka/IgRGWya25QG79DYpy50qpBovuvPoEKMe82in1A0ZgagPTKmZCCKRZqKmJR3yZ7FYRE5oMFPaNqdQ3LNy+XHOdvLacouB5+Uf+Xe7oA0pFPXG7+Elmz08q9AfkD+9XVO5WqvmdcupuUpRqseRkAG8Gujil4HoyOjsnjTClWngigmbcVzA0pnKprHRNTl59Tq7XJw0+qKj/K3JKTysVjZqUB7FIsNDfoqD8S4WlLfIa75Rb+zpF6TZDtCHkZLzNb3gbwJFUi8w7Op5Dn3S/va1duVze0tb7ihQUA5U2H1Hw8DZFew5rAuGzukM1dyxXObxX3uh/Kh2Nmr8ce2EsT6U1zCAQNqBg4lEFA47MXKq5SpGTPcMECcBPlOkOoWKCP4ytfiRR2Duh8nP7FW7Zq/FiSdnWBtXesFxqeVrBwP9VZvJFOW7JHE6zmCpmj8vcz6hb0diPbSBLbo2c2msVsT/NNHQV/Gc8jFc3RHJDyT84pLGHXlLq6b1KF31lya7BlO3Jgnz/BWWiUTMyGRWPx03iaRM0jkbhnBONyZ98XsHoE/Iya+Vk2s1f+002SRMBnAQnqoE127XqeslxUj/5PX1/ggG1BB2hIj60MRlo7Nk9Kj3wkvL7+8zNLdUdUXl9Qcq/ILe0SRB8zAD4AIDZdEKi4E1y+eNPK8yskZddJ2Vy8byd08BHSIBvSDHTJTlzdB/LhKNRNhLxlff1K7WzV9lioLLrWrAham2Ukx6UVzxokLPAQyWbdwzKo9IFA4svRbjhEYWTL0jlg1KmucIIR5/9ao+IxjDpj8mAzH1iMt/JKAnRJvvqNmEKzid+VjL943jMUn0fx7PBnRUXsRMxbX/0JsKJfGdSUs+Y/Kd3Krd/UKQATQUs8cvJyftSaYe8qBjbQRUpZBGlKlbgNx/vcMPe2Ico7pRDxGPKQJre9bn9pq8gBYTYwMkMRDa31o6tlQAdwHN8ou3Yu1/5i/utTIN3gofKVRMhHBN/84OyfC9SGUMWLU0YdHFejnNI6XJPvIbCMuzFoerqpybsEIeui3LLBDEOWQ7XRGBV1381x8xgJbHAt7/9bZsK/mruPVFd4AQ+mZ0LTqsLfhb5ocj3xEzZV1VmgPucfATGDEhlWB4dUzA0KgVxGkQipVFrQW5tUSrtrkxgizVAItleoXod7FcQslsq7VIUXiDHnX197YleFCJlDj0bCbDI6DAXCXGidpPrU8QLeVbZcTyX5Y2kVlzQ0WEObvX15P5Xuyfaj2UP3H3GwZY2K7xmlcI9g0r1jWuyNKn8kpQlMU77JCROm/0Tj+nEn8g9+sx45MAcNdLeR2NSNBQnM4ap4CxCyxUGjfufsM/RVo53hDZgwQ/JA8455xyD+/HqvZZzTCFnRR44ZQ1GdWZAiJ9s3kwtZ103089/1TIrI+B4JUMwICWqy0pdzSoWI/vohj8RKFyYkZsdkTPQIzf0LL0ikoxvFANglHJ1QTJR3HBMDppBcc4cNEXsLMTXY1TMDSEAbcOGDZbmnGRaLGA5WQUmIMozMDgocgQxrpKoY5778COP2CKZO9/xDluQn1x77c9HQ/PhkFADJV+b+8Z1oBQps7pTrcsXqm18QnmScy1NKQyPKOIzuFNgqkDbwttG3aZCTJ+bn5BW4DTKdWtN4wgtZ8laWYoEpjE74lV2c+k/sIEY0QyJqTKX+05UB2akXVbcff/737eFS9WMwFRxFjYlJtmJ2pvL9RMwQmyrBoaUQAc9R9Flq1R31lI19I/JGRiWe1adIvdFOf6IaXdCF06yJrbCA1Mq2A7IMRqrGOxW0yp8NQa7CYnF6LNNHWCsgQamsDzj+4AQFp+Qa5SozMksIHjbtm2WSQLJRBa4amInu9woSX6nqe/X3AdeOQo1VPL1syMlfWvniHaN+kqnHDUWMlqWymlVc17XZT2t9fmoOjAr2yevgBUCC4KOR+9hEtQ2kj8jP7NKE/lb1TuxVKmopPbanLKWyCBGFGg5HrQhOAoEyhqHqYJ2rJpzBR6AQzVTcA+juuzZqgv1ESbsk+vAlmPaIDUlK/WSlX3cy3U0AKvxuK96sJfr1W1S90Qjykl/ZnSWrXN8DCMItHekrB/sHdYvuseMMNvyBS3tqtHK5c1aviCngvusUm5RDp6dKfUqq58vbNgoZmxOQeyhahRkzlOQOpvkK8pEkZlVEH5FQx8XIUmnj7dPADkd2Mer+2rP8dV5bGG0AXBJCkRBykWWWbI+uJpBkjrH21e3cbzrDIdt6p/UN3ZN6PEBqRhm5BQjlSdd/VK+WlxfI5mMliy5Wq77oNJ6Xk4A8acljzT3MTPYh0xMq+cVZNdqtPateqr/Sj2wdUDZ9Kject4qXbSoVXVkBXRwqeP13PSPDdOHFDOsmWZ1GgS4fv16nXXWWeYcT/k1FZiwug04bdq0yQgcXDA7AWmOEGEparIQCZMSLc7KN5gBgoWoSWWzbt06u8azyeFK+kwSGOCQkwaHhUMIJ5iFvrDKjkJWEPpKmzAvU20wla+o5HmaDe5V7P1KlEC6PeVA3z9U1L27JrV7jGkSkbx0pPp0oCVOWVd5WX14WZdaUssUBANKIZLCjOQWzSji43wGMCd2eJj7EhQu1lDudj2zf4FGgoM6f2mnljfWTyXSZa4PssPm11TWGeM0QZBMnEpXVl6BmOkcz8sCIDQDEgUgUyBSAA0xo1qrCxKHujyD9kAWQEw+pJEsncQ2BYGsOuM6GxkfQBDnKIk0hChoExVPezx7TrasI42WI700OK4tQ4HGkaQeEt+TGzoqOint8z09c3hSfYvWqbHxLvl8FivcqVRYlZrRYeoFC5PqFGQv0Gj+rXqq9zx97tkJPbp7SCkn0HDRV0P+fK1va5AlizGgx5DH3MEO/+pXv2rwAhbA9MEHH7Ts2EhkSkJc7HlXbHpMGggRRgC2aGsyeZAEAGaAYP/1X//VnF1gAvy4F1xdeeWVlmTgscce05NPPmnwxjyCwbgXOIOj73znO/aMu+++2+7ft3+/PvvZz+rxxx6z6FWSOpP12eeff771dbZ/szJC4Lja0lfUT/YXtXVSKnlkeZDCIKXBIBKf4evbV9b1bSvUUnO7/JFueU53/OG9xKox1YwRlFKgRkWFy9Sbu00/2LdKX362V71j+/SGNQN6/1Xrta6lTmkTZ/GIqqEkijPA8eKkMkdKIWVYGH/bbbeZNK5GCMcQNFLkG//5n+rr7TWEADwIl4XwpDlPlk9u3LRJ937ta5b7MzEBIFwkD1njdu7apS984Qt68cUXTSohpUAeJtL1N9yghx9+WNu2brWEXEgnCAKp9I1vfMP2IJiwIk4dCYFZqD9b4Z2Hy4F2j0YaLMMEji0lxeRMR4G8IFQuLa1oymrYc7XduVntzV2qLz0ijfxCTmmfnGhQjmXzrlWQu0R9ubv04/1rdO/zI3p8/4iG/XgO2EM7DuqipR3qqs+rORfnbjXwO4697z333GPpY9797ncbsZEk4Mtf/rIRHFIbIqsuEDQEj+MMHNgQCPfdd58RLjmeSBIAgcNgd911l2XPAC/AHliBF2AEnsjkAUOAZ3wChAnZvzG/SEZA/YSBfvTDH+rb3/qW5YMikTJrs81crUzCpC+zlVkZoRRJ2/vHtHuUICdzNwFgSl7EEkdHvutoJAw06Bfkt94ixx1XMP4TRdE2i06Yq23p0x35TrP8/DXqTd+mB15erK9uGNQvu8dUDHyNbtytZe0NWlK/Rk2ZtNlViYnDi5LehA31euFFF2lkeNjy76AuAU5CgMmLIv2RHldecYUhgrYANOG2//iP/7CkvAALCf9/PvEJc3ZJqoUKpx7SEITAPHzcAwRDzKhgkMSe56LpNm/aZNmpSchFPxg1/tSnPmVSkf7CsDwfaW210lQAABMOSURBVAeDzbWwxDRkxiifpzKikpDxzSlfb1xcqysWu/rJkd3aPzKmtbWrdFHTIq1uuUQNkxvkjT+rKNivKL9eA+nb9ODe5friL3v1wuExjQTMwLXpwTo0VtbWw4MaLU6qKZ+Kp3JX4vQIHTQA6WGQ0ol0R5r/27/9m5k/EH2CJ/ZIayJ21cEKNCTmzaOPPmrtAQe0BgxCahkInnshVOomdj3MxMYnri699FJjMOpxncx+CWFzjrZIfQmeyOJBfxGWFCP/EzAB9WbEDJLJDyP1lXyNhikb4STAIPuyTCQ38LXEk962vF6pwqT+q9vTwtydOrvlSrWUnlRq+BmpuEmBc0SRV6+o8AYd9G7TN7Y2697nerRtoKxJnCRJ+0eLemR7t9581lI1pnH14nnyONVIha9//esmmf70T//UOB1C5SN8EDUAJh8QAEkKQECCQJhmqlScL5JjkWcIqf7GN77REMJ3Aj7ykY/o937v94y4AXBiTmEOIMlBJEQB4tESIBxm4DkwDlqK53Av4UTSwUNApGOHcZI2QRTMO2uJZGulWwoppTKuJsspRfhffqDWXKS3Lc3r6gWRHu1/WY/292ogCPSL8XE9MpjWeQ0rdWnTWp3feoOaw8M6VF6kb++o0xeeOagtvWNicjYq3WG6gOOpFAYamSyqGMTT6vHmKAgfNCCCYdGiReYf8A68I5m9eX/scFLMUBLYs2cDVpiQmERE3Mi0Dc6AFdeBCcdoCnwPkoshuEgogPChDkKj+jghbK5NL0PDw6YhYEJ8AvpHvaQu+EyOp9+b/J6REfAFUo6jXNqTk/LklCBQbNCySkprQSHQe1bUa+2CQN/ev1MvDfWr2avVBQ0turzlTTqn7Sp1lDYoNbZB5cxC7Qlv0n0bs/ra8we1a6ikMp9mrUgmP0ppX9+wxkolhcrahz1seNqRSR6kEB/JAGBIBEwTpAT2KhIDIFe/KHXwA1C5FAAB4EEskhy7FcSWKkTMMYCH8BOpzTnaBAEtra1T/gCEAaApk1Uf4qMuqph8Qxwj7ehv0h71uV7dT2tk2j8kWGPK1YVtBT05UNRLRU9FN6NlhaLe3VWvNc3Szw7v1MODfepjLYfj6Yh8DRXL2tFT1BODBZ1f36abWlZpqF/6+gsbtalnXGVknlE64wyISkcZx1FDJqWUl1IYfzDLeoNpCQED2z/7sz8zGAAPNhgZIk8YnxuSa0hmTFLMWHDGeeqhJWGOpMBA733vey2TN7Y/OOGrQEhyzCBytyZtsk8Kx8eDH/0dHhkxgTjd/0vuPdF+lqgRCxSl5fU5NQ8G6illLFMciXNXpMt679o6rWnwdf+B7Xp8aFgj8nQgmNDe/kk9PZzS2Q3Nuq7lZl3YfL2KE2l9YcOw7ttwWPuHy/KZskpolJfkGAyFTOOOv4PMyrCE8bFLkRrYhHwYjwJAEuBC9Ejk6YVzRBaITIAUHF4SbaFhQA5l8aJFuuCCC8wHIPSKU0XUAk2CSZMQvPVz+gOO8xtmo1/Yp5hW9G16SRA8/Xz177Qb6pKWvN65yJE73q9JN9JbVjZpWZP0k8P79dRgr0ZYi03KFqQ7owCONBLhAI9pb/+4fbPh4lyHWgp5ywBucLYvBgFAj+8namGdp/WdLarHP6iaAZD0BcmNFk2mTiR9v/mWW3T11USsjr4f1xACn//8581He8PNN5s9z8dPGAX+53/+5ykiJsIGg+Gr7dixw0KkpM7nXnCE0EMonajwTAp8zRYw0FvFONX3J32vPld9PKNGoBI+wflted04XtTYUEndYaTltZE+sLpGnYVI39y3Xc8M92vUy8cOneNrWGWNlX3t7fX13FBGr2uu0wXpem3pgQnG5MNept1iYgSJbuirq6VWtfgHbvyt46STqGmIGOcK0yIpEB3EDvEmajO5hu3PV2lw7KiHtMGxA7ggNQEW5/7xH/9R3/zmN82mxw+B6VDRpGT8wAc+8IqQafKM4+1pl/uRSgnxHK/eCc85rhZkUnrHiiYtrXc14UTyo7K+c/BlPT3ZrzK2MjE1fDJCnlFGjtK2bDNwy5oIXL04UjQtcuvaFeoeirR9YFjjJV+hE0f+mjKhblm3TJct71RdOl1JdRkTFgIgkdIf/OAHjbGr+4xUBubghXfmN1oXIsaMRKq/8667DI5cI9pHmwnc0ZJoZ8xOPpYCjrgPXPBZLAQXWj+R/tO1T3VfaBPNTzSwt7fHmDDpU/K8ZF993/TjWRkB82hRPqUPrKxRTfmwXhoZ1c3LFyhXKOnf9+/QjrEhhTag48eIsTGDjEKHsF+gl/1JqT9UU2uNzu1s0/N7h7RvLLABo5iNPdbzqCPv6XVrFqu1kK8s7URqxWyOnYh0/YM/+AOT1tUvgEQiTAbhJlKe60h9Qn8A6K/+6q8szSHEiZOGhkgkGQhhDACph7lkeUY3brToA0yEs1b9GafqZ08/ToDPM2kL5L7W4rCKzE2pNZvWjUuatHFgQPfs2Klnx4eMCTBSUZk2MDklVGLBwsJXVgX2hePa50/qg6u7dH5nQdv6xrWzd1SbDvRraGxSl69o052XrNGK5jqlcP7s66G07BkTr1t3tp588rMGS2zv6sK7VhMn1yBaTD/OQ/TAAWHA7wQ3E5OT5n9wPrH/OQY3MBaa1KcN5qO5rt2P2UMKTJ6Z4K2asDmGaXDQCduC++ljOtSpvqf6XZLjWRkBncDHU1fW5fTB8zt1uFzUjqEhfW33Dr1Y7peclF3nA9xEOVzWxvKJJpt3Khsk6yuVtaU4pBuXLtT7iq4e2XtY+waHdWS8pAnfV3teuuuC5bp+zVLVpFm2CQ/Es+rpJEwAgJFQmDHTCy8IsKoL9ij2KtoCexNpAaIAOMSfSBr2IIRztM+zzCTKZEw64exRBwSATJ6D5AN5nOfjfNUATiQdkhJbmnuSZyXIqK5f3efqY6ah2MQ6RtlD6dD4mPaWxlQCLlPDv8YO8W3GDJVDE+pA0VOGteUhc7qe1TlNGV3Y2aF3nN+uQmqhGgvNqicTn2kXR2HSbmUw7sabbtRXvvJl/fVf/7VpRswke+fka5vr1xvseB/wAxyR8sCAJMIIKAibCA8mLabtPZ/8pGprasx3whk3DV35cOLuXbtMi5Obtb2tzdpBY9M2AQ3aReCZ/0DMpoq4CVzgd/ActAoCr7VyLwzGl0YTPFTDufp4VkYwOx3p5DlakE/JDyb16UO79VJxWCm+JUYFGEBJanTgz5yVWKIjaEry1VsuqW2hdPe1zbqzWKfDw6F29xZ1sG9CXW0NunrVIi1pqFXK/IV4tmsyJ4l4fl1dve6//35zkAEwz02QkuyrXwpChXghZBgCRgCgqGhMFwCFGsfxxfRKmAGkYm4dPnLE9kg22kG6wQAM99Mm9RPmqCZskMXIKwzDZ2XxN0AeddgMXtUdneH4aK6KuAIJJzGHKMe2UcUBXIMJzBPGEc6oIyWVwx3aMXy/xsJhOU6D2vNrdUHnbWrONSvNktmpPhw94tQlF1+sv//7vzfC+sM//EOrBVEhTCDGv/27v9NZa9YYwRPx4Tzve/vtt4vs23/8x39scOL9EWCcf/nll+17z2jMv/mbv7EgB3hhA9YQ85/8yZ9YZAohQuQPjfylL33JHHA00x/90R9ZyJVJjuCOPgF3wuHghlT8PJv7OU+f0O4nKjM7y3AdVideVcUB6S+VdSQsyxaNn6BlwBrL9ayavJxCf5+27HtUY8VDqqtdqAsWd+mNa89XS6FLaS+nFCgxaRYzVxw1csxxveOO2/W5z33OCBEkQIgQFiqRj/MxhA6BJARKiA8gMiL5sY99zCQVo7xEQXCKkUYgDqDixEHUIIICs3CdASNMJq5hyyKdIG4kPYNCjBvgMPJMNp7PRjTrDW94g30JE3sXlZ1cI5yKv2KvOYNTRx8s84eNyDvyHFdtubwaHE8HTRJSgVrWSvyDmIP1Ptk7yqRDtWakYqlfRY0pcpnTM6yxyf0qFgdsUh+h1FhsVbSLMVHcJATGBEZCxgQA8LuQ4GhNBAMbhMY7EVJGo3LPhz/8YfuSDzY/dYAVeAJfmIvU4ZjwNUKJCBQmE4QNnJHuBgPHMRMHp/pd7363jdK3trTYOdr9y7/8S6uH3wh8Ybjf/d3ftXGEvfv2aXJiwmCN4KTfMOFscJ9VI1RgW9k59uV2Qm0nLAlBE9lwHDXZ6GiveoKN6gl2KxrKKTvYIn9BoKb8IqXdnOEVdNjIAvdXMAuB8r0wpA5fqoRIOYeUT4AKscIgSA+kBsT2nve8xxDFQAvOF0BmsAVEEgMHQQAUIGGDoiEIGQK4t7/97fY1TMYnKDAW4T40DfNokDxoKgrSDiKgffqBeQCS6A9jCtittMl1wrUQwYkK5g9bvIYAPy2vpdm8tpfGbfUGZow5yyaq4hQINGsxHLSPItUwSS8jlSfizNY2NhOh3QrKZusUOalKFpGjTADIE4biXSAwTCKEACXpO/tk492plxQEDOYlsEvqJNeAN4XzyX0IiqQe+6TQJn2AiUhdz2+uI+kp4I1zycY16IK+gn/OU6iPNj9RcR577LGjT6+qzckGnJCuLtXka0i+op5iUR/fvEEPDPbYN8isuoVBOYofPAWSSnS0Ie3p3W0NujK/Tbv6/ktjwREpSikd1ercBbfp3IV3qpDhe8NACEcv/qM5ziWqkxdFgmC6ACCAikRKEJYAid9IaAqqEzVMAUHcw/VqwHAMsJBWmDQwF1IGoqck7dIPns1GHdqiDvdSh76wUZL2GN+gTRDERr/49jESdgpOdsex/xYuWGiMn86kWe+nicDXfftf1mf27VJ3Gb+BgbGyAtZxEgq11uI1DDBBTpGuKjToQ4tymhz4nnaOP2IipsZt0+rW63T2wjerLrtUroO/FD97tv4c27tT7xc4JrTLWMNM7zmreAfAfEGGu0F2fTql9XX1eni4R8WQmH/8EW8WiBPGs7oVtKCHyGuUd1JqSrmKymMq+5PxarfIVSHdqLp8hzyPcGpM9VOdrFL11YSOdGCj0J/qvf2o+odESIh/er2EYDmfmDU8hzaTdrmWSJWkDzwbFVzdXsJ0SV32bDALmqC6XRhk6h2tlVn+VVXMeild3b5Ym4cH9OP+Po2RzTvMyPcCm+5iuaMiKU1kxZE63bQur2/W4sYGjTiXKHJzxgjtdV1a1nahajNtlVQ6wLDqQbN0Z75fmjHBV+IXACZUrn1TwPN0SUe71g116xdDIxYhIidc0WNckoU4/I9jPqj1bBRpkZdTZ6ZGXpnPLDVLTkY16RZ1NV2szvqzlXXzlTHNmOEMLVW4SQhrOiISwpt+fqbfc6l/vGfN5b7pz4T4q0vSLkxm7cFwiSiurpiQZfL+FtGJSXVltqAPLF0jz92hhwb7NVCOlC+7to4Dc9ILQwHJxemsbmrp0FsXd2lBIa2ocIPWtV9uUytSXo28KGs+CK2ebmxgQm4GuM+oEQASJG3aoIIs8LOipkHvWtilkdIWbZv0VQpoImOLw3G9WGmWDiMxxLM4m9X1Ta1a37JQXnC56nIt8sNx1efa1Va3XPXZBVMD+wnup9HFvPw5GwEa3CvaDqaJ7f54PtyaugZ9ZMU5Wnf4oJ4a6NFeFgUFCKFADW5GK2obdHnbQl3Z3KZFqYw8e1BG8mqMEQAmp9DAMGJsUs1LEL/ql5qREaZaMqsFhMQLw2scV9e1LtR4WNa3juzX5tEJFX1HDKmRcZpZK9RZkivoxtYO3bpgiR07bo06a5eLsX3HZSQzE0umGTh06vmn4YExQ0K0lffHecYbWJqr0bsWr9bVbQu1Z3JcE+Wyjdc0ptNaXFOvtmxOGbiH6fJG7DSQkDxaG/GW+BWnIXBneOVZGWEKIbHVYuDE5KlNeXrTwi6tqmnSEz3d2jQ2rH488yhUvetpab5G57W068KmFi1MZSzbNFpDU0mlQEbFPJhC1gw9PA1Pox3ZYgOrAnymnlTOsKBsTbpBq+oapswbuyfxm4CZ3XxUz8ZHtHF0sPLo1dMQyNNeeVZGmFbXftraMcdVjevoosZWnVXbpEP+hMbLMSPUeJ4a01k1pCsMYMMDsQMZo7fCXpaaPHnCGZQkkEj2r/BNbODyWDjFjJLcEZs8/Dq2VnI9PpvohuTsmX0MgVkZAdCxTUkm7sFurSylxKppyLiqzx79KryB2wxR8zAqWImRkADd0rNP4e3Ya0md+bi3qNQcXox6hPySiNMcbjlTZRYIEK070bcdZh5ZnhZKnHrOlJk0deaVEshoeybZExP+6UP+R+FkRzPBtarayOionO5uY4Sq02cOXyMEECylynw0ixwdp52ZNUIFYYyGpqZNajtOO2dOzQECAWlrSPuCLT9LkID5UWOjJFE+U04GBMxAOUFDMzOC49hILtMTyBpxpvzqEEA9G4HPwgTJU+aCvKTumf2vDoEZKRxnDW1wwjW2v3ofTrsWXuEIn3YQ+M174VcEHn7zunimR2cg8OuHQIrFJWfKGQic7hA4oxFOdwo48/4Ggf8PHvDzfnQf0h4AAAAASUVORK5CYII=;" vertex="1" parent="1">
          <mxGeometry x="750" y="593" width="194" height="74" as="geometry" />
        </mxCell>
        <mxCell id="WUVt8O2-kMxFH5hkAYIA-37" value="" style="shape=image;verticalLabelPosition=bottom;labelBackgroundColor=#ffffff;verticalAlign=top;aspect=fixed;imageAspect=0;image=data:image/png,iVBORw0KGgoAAAANSUhEUgAAAGUAAABGCAYAAADVRFpXAAAfe0lEQVR4Ae1993ccx53np6rTJAwGmSTAZNKUREmnk+/sfXv7z+8P++68urPXXnllrSRrSTAgh4k9091Vde/zrS4MmCTQXgB8926kQYeprvDNqZrqeFo4fHCfMCUHqDA53qsv3NnN8OO7j+/RFDLs+zzw7mHf5xelFPLxGAfPnspj8fs8fHVtCZgaOC4giKMr4AwhFwEenzVnXV3d/P+2kT58pEDPV3hNlDyfwNWcfaBI4eIDp5zjGpEvFlD2aqBzxaN4oeDwASOFbKEA5eA4W/mf9yzgHJTgjL+foe8Mkc4rB2nnpD1Auc2v9MWWvoMrBvvPDSei4MNGinP2HPAVFCwcdQSBLgzEezVHcb01ggK+qH+cOyf+fg4mH8jvHwinCIQ9sIXKSTEEPGneHz28LJRcU4TVHFJTvLPkICV2gHCFPKChVAxXGwfkkg+TQ16lhg8AKQEh5ydGjqDeoOVUiy9BloJyGZSN6sZzLlHKCc94AUAOqTlHsx9/t0bj+YE+oPMwR3wo4isAlxPznEFR5SUTRRgBS0TxFpULRZLXMzyG5YSjQFo4SMO5CErxyzEcLDkKgNYfnlgL+u4SOOU8aHTtVxDQgWIDZ3ggieImWBWBXsK5Qr7WTVHZKYwtYYz/WlvBqTGgckGFoMPxOXIToDQVeCQAV0pDuTaUXUUcdZDEGaJIA9pB08xWKbRLAUcQfFgIugSkkJwrjwyb+CMRoktAGVhDBzBDpCM4VcGhgFUFjB1jVh5jUuyjKPdh7AAOEzhXicVkrYOj2iDi5EtUmJpPbM1Hwj+BnyCCQLXgbAcaTSRphDQDmlkTi+k9NPVdwPSgbQqtvcD08ixwrr+66r+XgxQRPa8vjBxEkeS5h8qXesDpHHn5EseDbYzGO7D6BEqfQqkhdFSKxUVKVhQ3itONaovLizSPBt+38IycOljnBNkWBpVrw1YNuNIC+QSxTtBNdrHesVhqPkYSZbCGyOY4QV9dNSrm410SUuYDnD+jiNGKHKKFwpUiwPoY5N9iNH2Cwo2RxCW0ykXJa+oBFQFWQ4mI8WKGHOKFH60p6hYHxa8XZF4X1Ypfa4VUKVitUFmLypYoqxIn+S7c9CmytXUkzYxyz6uw+u/5eV/FOWnpEnXKTy+Bst4PTpFTYFocYDj9HjbaRZJQAXN2BDoVPKmWiKF+EIUhusf7K+QfB3cOKaKavDqHFk6hrrGgLjJ2Jv3qyMoYpppgMt3FYLKLVtZFotq1AfHT87+KXy+JU84FDknStSQjtVNsUT9EsQWV+bQ8glVH0MlAFK6xERKdIlJZLZmIFIq6GhzBYBDNXo/DH2txSMUjxrEi0iIZ28q5gVEVNCyMM3AqR6X6GM92UZpbiJMGnIvDVK8C9u8c45LMjnOYkKHJnPwQeH5Iih3rchTlaa24rbegEMHZGI6+iEu8NaWUULfS5B5vMoe+FK16R4OC7clZfCapLSotfXmbmY4np+B1WZyUgO4jn+2jtEMxmYPZ7Od6fX8viVPqBQXqFqhQlGhoiiIhfs8ppZkCNoZSTSikAlANb7V5INHCqqDFiayEy6jsNQGvYpSlRVWxr1jcTYG8q+RcdJI18iyFpdc9FJHk1il0NIKxfVRuKoYBRauEBK4DH6IaPfFeElKIjcCEYg7JMkWVhpAHzWMBRikmsrKkYFI6kUbksQ+xgaHpX4iO4X1yRgxTAaNRjucvdvH82QscnvQxnVXQkcPy8gJu39nC5s1baLQaUOBYJSLFGEEMa+jvGFidw2CMys5gKew+kDjZJSIlkNs5cSM6JdwndedwjgqYYRF63QGR3iEkIujwRToWB1LR4VMpxuMS33//I373uz/g6fYLjIYVjAOMcyLmkkyh2fwa6+vr+PKLL/Dwl3eRNiKi1Y9FpR9xXgWcmmFWzYSLxST2/BYmeS3HS0LK+bWIsVffIPDJLwSIEY/dEkDKgOYxj6Ldac6K7KdhYFEWvI6goxTD/hT/83/9Hl999S/on45QUDWoWL7OGcA6TCdGvqP+Lg73jnB09Dk++6+fYLHXhaORESWwmIqTa1GhKGfeOPBa5/zkr+X8kpBC0UPFwTWdD68QyASiX6sV2V+IV68YBQhKXPQHqdorfCruJOng9HiAf/qnr/Dbf/7fOD0pJZxCMabi1HvvwinsnCGaSszoUb/Eb3/7L8jLHL/+u/+O7mIXhc0RxRqWVhgqlOQUIZXgq1wLLs4GDfLi7MbffuJFhMdI0CfUYt7n8NYTcRVLcJCxLgYcyRniv1haYTRbLYw14sk7FaGsHL759jv8/g9/Qn9AnQBxBimWKlfIlxrD2lKUdsyVKQdjHSZjgz9/8x2+//4JioqhnQjWZXCuIU5qZcYSlZYY2t8OgL+yBx8NJwwuASmcU80pIqYYWvFUL3d1CMensHQgFBW9Eq89mLXWkKPoY8SwYhjEGAyG+Nc//Rm7e7SYYoDhEHH2SyCqoHUBpUuQ4yKazoxlWXKCH/70tMSfv/0e/T7DOLS+mrCuhQoGBkM/j5qD/0qo/qc9dklICYjhkWDxH38WrulD8FcLpx0qESXED907IoNmcgaHFMxa/+XJNn58sl1bdQmMobWmUBR1hFgIgdxI6+x8fM07n5UBXr7cw97+7vnJiPhyinGvWp+FyV7j8ZJ0yrtW5FlUrF1Jh5Cag3UG7+nrWKwtcsre3jF++OEpDvYH2N5+hsFphTiiyIkBWwpHUkclMTkx+BikM78sRn6JeYZujAUmE4sXL17i4Ud3a+T63IpQh+i++vpd07+C+xRfV4uUmkkoJXwuxNU+Q4UoYtqWoibGeDjFN99+j6+++j32do8xGdFi0oipnCn9lIOOFCpn0WwyHB8jH1W12CTkAjd6a4/PiBHhHA6PDmGMQRSRQOr0snBJ4JTrk2E+Jjj38K6ABuagCoNxEpYyTHQPOQUoCoM/ffsD/vEf/xn/8eMRphMiQYv+KZmSEZhNAVRIE+DTzx/if/z936HTTX0eB2xEBDEQSW8+EmRTbxE5FeUYRxS8kTSo8+gXBSsxIDTM8uqPl6hT3lyMB6h4KWc/Uo/TvyByCPyDg2N8/cdvsLczgBJAetGkECGKIomTQTOgaHHn/hr+4R9+jS//22fY3FqHiiR7AiXGhE988RlGmSm+okghSeapYfGFatNdos3ehj+b23WdXC1SXlm0V8BimNH4cqRajZe7e3j+fAeVhKp8Yov3qXr4OE1lBiY3brTx619/ga2tdXQXUty/v4WsycClQ8UsJf+zDhVDKs6IXiF+Ou2OGAgEOJHiA3HM1/D8utDw6rhXipRXh66vamlhLMMuCkeHfQxGRuJdjEdRqMiXUWXFsAuQZBqPHz/Go4ePROzoWOHhowdYWVkSIJvKSewsSZQ4iNRBkXaIE43Nrdv1wF7fOBviaYwyEyvXgxmKU4pzfq8fKQIiMcXkrGR6n14/nZAAIHr6NXoq42BKhcEgx388fYqqZEhlhjwv0V1YYjgTWcJIAK0xXnldRidydWUJm7du+REl3kbRqHyQkymD61cnMrertb5kyHN/gllcQ4OKfnFxAY1GhMnYIpKocWjvTWeWBjG08sc//BuKcoIH9x/ij19/jd/9n69xejLBrACaaUO8fVbBaEWFDywuN/H4k0+xsNAFaAzI2EQKmYvJrUAE14+ZS+KUIAKC8OFC+eV9UjAhUUheAy6FNaRST9MbGxvYWFuvc+9EiIImNcsXiCQcYyV2dXvzPooCeP5sD8+2jzDoz8THITcx30Izmz591lZ48PAeHn38EeKYGU0iwEK5UjgrYmJMLI5AANd7vBykyAIJ5GD71+Ym71stopvp2CRJEWEJ1jWkFGJWTbF2o4vHnz9Ar5eJ2esqw1ItprUEcAw0Jg2LBw9v4+EvH2B3bw8vnr8UHRJT3zACoxmlZFi+RHtJ4/EXv8CXv/kUnV4KQz9HspMzaJ0jUQky1UZE6+yseOJ6kBJI95LEFxFCa4YcUS+Q5yIZKMMp7ulDsBgulRBLFOVyL8sa+OjxJqazEb75+jucHuawFQOTQKwdWm2FXz66jV/96ldIGxrffPVvODodwIr3zmBJiTTRSLMM7W4bH/+XTXz2xSO0Oymc7UPprM46sujPQLkYkep4RJ1N9nqQEka9JKSE7r3MDlciwARJDJTXVg/1hmJQkPkNg8KV6K2k+M3ff46t27fw4w/PcHiwL0V5nU4Tm1s3cf/BfSwvLSOfzrCxuYjPzF30B6coZgypaCwvrWLz1hbWbi5haT1GlFao7AhaM91cwdlSMo8wJJAMcdyGZnGg6Jcw2+s7XiJSas4Qj7HmHPJP4BwXIdZNRLoJZWNUBAiFKSsiDc3eBu7e28LW1h1YY2HMDHECNJqJiKWqGiJtxfj0i1/g0eM7MCYUXigJ97MCkx1aRqGRIE4cyrKCqQrEDLHQM3FEEkta24COZdwwvetDSYjcXcYMZHX8Q0j7pQZVzyJreu8xZblegCszOEaEDUPvzKUEY8AhYqmp8lFhaB9RzgsWUvD5CMZV0HEExe/ZmD6u5aRstg1TWtiihIoY8yokDS16BS3E2tcZk00YC/sQJNjlcIr4FYRQQEqNddZkCeQIABZINJHGPZhJCqsYomeAkIDzXONshdJaGCohhlaYJTRAFMfSNXPrDKMwg1nbuL6mWExs4QU4m0mYn5WWEsphGobBz0pB2Q6SdBGR9kaFn+Xl2D4/T/eMQNAgujROEY3ukXK+QoSFdFLDxSQWQycJOq1lZOMmcsO8ld/0U5kZNBNX9B+YkJKgCQONnHQK4xKR/zTmKgkB+7CKtyQoBzk+jzmUIuKYn2GtvYWKWNWiJFGmTAetbA1J1BYk+wqanwffZbe4HE45m3XgFt7wRXDimQslR4hUE820h4X2CorBPkw1k8r4CkEZEwneilO8R2Dbhv/yF6mGZN/kCn8U/0PsCyJlCMfqS5VCoe2zmc7AVBGU6aKd3ESnsYks6slGJMbfJB4mfV3fn0tCStAeASmBcv1RcMKor4rRSlex3v0E1hiMJ7uoyiEUSOF0KFgtTMSQV2gxVfX9UV3MXVfGEEEeKxI7CukAhRlizQxnA8604ZCILqIZ3snuYn3xU/Sa9xC5liTYXo1f/z+JFAIzZANJ7SzappipqV9qwGJEbhG9xmPES0vI24cYTncwzo9RVLlEeL0YMrCClBmM6vuNQxJVDqrEEwERQ0onsqUSE01ExU3ArEBhFWnaQpIqtBod9Fr30U0fIrHLMAUTaAaOolIopsbwNeHlkjjl7ashSjyQefA+jKvo1W9gIVpGd2GGlYUBpmUfpZ2icqUkpcoyFySVhju4pt7HOBe7Eo0i6oq+jxYdQpM40ikaUQcxVhHpJSRphiTxhRV0GCPb9fsnaYZzl5iU/F8pSF4BVMg8vscMCNBah57rKkhzyo+zcwmakCMo1wNnhJBLeJgiiRpDS1yLIkWZCKlOkcQ91sYLXyGrESkizCe3qEBkLD8l6ZAELvQtRXwUa/RDGCWOZPOqo3EgMyrgxDigNcaQjJPKF1ZY1nZImOBPHxllrjUZG855K0yEd+cTJA1e9HNBpPjOf6rfGgV+eizilrhXmFiYHHuoe5FTCyUJKXrWhLSCM6xiiRlIn6/h7JT7UWhW88Y7ZnPWdv44CSZsbPXRYAYk2QVzOGQxgjcRG8Sj89yzbzn1Q7BlMJ/PD8p1zK+lzo1c/Y7pvqX7ixVOcMp+GEl0vNaPF0qeKgTS8vubqZq3z4ppD6HQulehPmlatyfhnXt0PpfXpiGXoeEcKLwtV+Gn15ApUpRIqys3A1+/rfezvngSzG7Pz+9oXg9a7yo7m8I7WofbF+IULop1c15E+QWHAfwxAMFXyUuVnOQnwjDvPvJJx73u56jrFbhxgLp7P9Y8QvDuXue/yKP8EyY8/+nsTOBL4EoBhQ8PCeOetXjbicxcfvBkGSDxloFofFght7d19Ma9CyHFPxXUtKcqWaxfja/CrfccBrL0nPKWCb4xhXqLXGhKzpDO5w0D6wts64vX28xbz8+kvbcnXkPsvM28Hz+wdB+emTd7y9nrE61lVP0slyM5ojodEOTJWzp649aFkELhJdLTitidb1kQ6mZohEkobgYNBEnDl4Lg5z+cLEMvgpP6+Tmg5kKRACbAZC/ka0h71ygCmJpJBEHnGSbMtT5yHuI8hurzd3Ua7ovqmE/kjKZqqzCM/SqXh4ffPBKU72V9cQBu52B1COMzDIdIdQmRpX0enOkMxYJsAlgSJiwb8iwrgwlAfQSXjuKZ58z21r+QQIKClUHM4Fc9SSkUklJWBxZIsJqRRMI+GPdiYZ3MoR6XdV00GvhbVXETkQ9Usp18uCFJ06Co5+AXIs+UVYU0zTw5hSIGroXjS3bMGyTcPm6Yk+b66zkkPLKvGhsBSbIODhxsgjfx8cadC3EKgcWQBnPmQtX1luuS+YiaSzhqHDE7yBJR74ixqpEhdSInkoI6pmBZlcLtEL4WWLS4IgDZxtd2EeiesrlhVaOoPOcRDmkSSVWlThg5NlBxLK1ZDcP8CJHBp1k9KW14bljuqmXvihAKWY6h/QB48Tq1ZEJZlc9NSoypkTikCF0rxEkKIk1SzbIbwNuHJC4SnbEsb2LFubCKx4Ewkucmmty15H0DCa/fuBhSSBMsAeK+EWgUBAYpMNEomaoVYopQWF+GqhgAZLCwZDW8RpzEmFY+QpwwKUIXkBTNhLFhLVeFRpr4CnvCVipa6D8oGD4nr+9QyItSwvo6YrhEye4tAkKokqwKhZJIJzeLGNLi7RjxVejpkxCYwaRvBMnT8EbEUAzlRyQhS6kbi5NEcjzslRJCItURc80WhWH/kUQAGMUWp5N9GIeEkqOONoioldW+Dvafvr4YUrjqWKEgYnSEo+EY4+kMpewjYUE2xYqRJFG7kWJpaYEb43A4GIBsvdLrYufkBGnWkMI5wriwpDCLk8EIw/EImzfWfRGDBRKlkMSxUPjO/hHarHBpNzA2FapRiU6zIa8RYbHD3t6RGG4LnRamM24W8tzInV/cuUVuncxKnJwMEMcx2hk3GEXIIoVWliGJYhRlKQmw4WQCFSmkcYxWq4GYhRfOYjyZoD8YodlI0e0ugIRFkPTHOfr9ASIYdNtt9Dpt4QYiP2L9lmwV91wftO1Po8P/eiGkkFqMcqg0i3McBkWBZ0cn2D06QW9xFVEc4ejoCN1mhq2b61BlGyejKX58soNGo4lbJsLLvVN0OgtY1ank0EfjGcbjHDt7uzAokMcxElIaNBKlsbKyKIV0z0+O0KgKpHkDB6d9DIc5Os02NtbW0G4n+G5nH1naQDRg7dcIS4ttETHHJ0N83GzI+N9u7+Llzj7ubm2itxDj5PgEtizw6MFdLLYTHE0m2N7eAfdKciMrkXDzxgZurK/ixd4uTvojJFphvJ+j2Wriowf3MRiN8eTFPrIswTSfwLzYw0f37+Dm8jJi6izKFDJfbep70XWmad6Km/dS9F4qepanzO6trmDWbOLUady5v4VmlqL8S4y1bhOr68vCMbuHpyijGBs3N7AzyXE8K4GkxNEPz7Cy0sPGRg9jV2GsgOWVNcwYoIwjFGXF3SnoRhp7hwNUzQ7QXkCRaORRjL5VODkeorWwiLRBfZIgarYxZD6504VaWoYZ5ogyeuoaeydjJFkLN29vYn8wBXvv5yXuba4ga2UYlwW+3X6Opc4Cfnnvhlh327u7+O7ZNmwjxfcvX+LhnXu4eXMD49EQ+3sHInoP+30Mihy/+fwRUFZ4+ewlBpMc66vUrt4QIgpEqNaIuSi3XIhTBL9WoeEUZpXDKM9xOpmiP5nh6DRHt23Rn0yhYofepI1ukmKhEeHl0SkGdhmHxRBlVGJtuYnJCXBjsYFWFuFfnxxiYa2L5cVFGObPS4cXe3tYX17G1Fk82T1A7mI0MUOzk2E/rzAxFkvtRHSaKxzKwuCwP0LRamI4naJ/cAQ9ynEzbaClY9hUidLrG4VxUaDcPUBnaRXHRYlo/xRpFmFc5Phy8z6WWJ9EBb+xhsOTU5yeDtDtLWP74FgQsb64gI9v30ZG4ml18Gyvj3//fhtrix2sr6+iw4woDbDgwfN8bpC9lTvedvNCSBF0exkmsrd/MsBRPsF4PMLpYR/TSRPDYR/KNjFM2+gsxchY05WkeLm3j97KshgKJ8OxxBdbjQzPd47xw5NtfPL4ITqtFKgi7Lw4RK+zgJVeT4C9tLSCJjOUVLqVQWUsOu02uq0MjUQhy7TI+WR5CYfGophNEFUlbvU6yI+HKPIpiqLANM9B62x1fQV3lxZwNMxxOsuxlDRQzAwaTUaPNQomzcQi02hxc5LVePCLBzg6PkI+yfHD0+foKIVP7m7h5tIiTJrh8HSE3b0T7FUFtlZ6uEvxXbsJJObwfRvw33XvYkhh10zjxhqxjXHn5irscIQyn+GT+zfkflkO0eu2cWe9h5QytR/j7tYdvBydoN1owRmFvWcH+MXqsihcGtPtrIHJaIp9cwBVFDja3UdvYQHTQR+NpS5uLC3gYDBGpR2ORzk6UYKFdgJTGIynJRaaDUxmFYrDU9hOB51GC4wFa2vRaLXQbmewkcV4xO8Ip8MBOmIuOxwe7OCzWyswSuH5biGip9NblOtRPsVwWqC30EX/ZIgbKytI1zRmeY7v/vwdnh0cYnFlXcz9R3c3UFUldp7v4/nLl9haX3nl9VRe9BP8Im/ehYdX7l8IKVRSFIvcCicvK+Ne9fEY7Vhjtc19iRZNZbCYRehmsbx8YDQYI11ekEoUKnC+qmM6GgMrayhnFrdWe1h93sZaq4mPt27CTqdoWoebN9bRabfEuTwdTsDayeF4gpZljXAGUxpklEiclHFYbDeQLC7iqKigKoVOorH3fAef3t4Uf2Ox1YReXcaorLDeW8TW6jKmZYmD4x2Zd4cvZGs28HT7KRJ3BzqO8ZftHag0QrfTwrOnO9D5FDc2lkFxqWnSZw2cjId4sXeEZnoPjVjDVSQSvsqEnzkq/NlFEBKstAsWTshOKmeRz1h7FeHk6BTT8RD3bmwgk70jFt1Yoc0qxsrATGbQ5QzFwEBNJiiI1KLEl4/uIR/kODk4xa3NFSw3UvSSBJl1OBkMkZoKi41EFknbsowUMlPIqzyiRorj/gRZq4VimqPhpkhtCw2WGeU5FrkZyBRQVYW7a8swkxGmozaMzXFwcIAbi4tYXO5hdDrEYDLB1lIP3YRjRfj07m3s7+7iyctniLMMvWYDG711dFsdLG5tYufoCD8+eSZ+DIlmbaUHcJ9+WWFn+4W8/rDTSHH37paY07S96v/nkYv34BR1kX+AgI4gk7kptyFUFrvTHLMYWOksoGVZlWJxMD5FI0uwHDfkLRAD6oDIiTM3LSu0kgTdrAlTFChmJbrdFg6GA6RZiqaK0D85EVOSC/ZRA4VpUYlzyja8N8gLkf0McTAPE6sE01mJaVUhacXIK4MsTbCYJpgNRuKQFiVfhWix0O3Cqgj0Rbirq8VxiUhxh+mIG+mnUgpZnCIyQMbsJZRYhCW3diuFOPNOo2ygZXCbRGiBlKKdnr+8m4wuNkNM9JkouMgv7+YWRgVGgz6efvfvwmfvgRSNlKEEq5DHEKTEFCklPXWLgoJQOTRLhmQ0CvGOfWiBkoaTY4Q+hIAkKcYLvhaEFfX1Irz54pmeUS7Lt9rVv4o7zjcakUSYVZTypdCGXflsi2ZIiM6bmKKskiSrEihKPHPOhbE8Rigolzk2kzoclW3lNZcMVzmFxCikdQaP9cqzyH+5tTy24dWJXN9cUElwVtYT+n9FZbxx8TpSLqRTPPr8wIGyuCipVK/LfDgRzstThkVc74vnNT/1wV+EuskaM3wDhHyksV8In5BIiaR0+TSLMPi3gpbiOwKZz/niDN+/p07JmkngkkQUwTAIWW+nKATYQGyAMiLgnSBIHGMuCA6NCoj5VqU6Bicho3qjF+moU3naJ+eQg/3HiyyP+nN8QaKquSW0rB945+HiSJEuasw7Jm28t0qv1SPDb3EgvZHyqPy5LI8kXyQkBoP0cy5UL9DkrDnlAFoe+XzgLAKeAOM1BzwPDP8Y5yGMR1AK/jx4PO/wSXKw7z+09S1qQnI1IoSwfNA0SBwiRdoKcOUtujW6TJiycKH0foYkIo5PeckVxvY3fvrveyDFL4jDkLoIAPmKGPDLEzrlFpQ6m8LfpX0N7iAW2BN/I7fVyz2bpdggEvgMt+Zg5R15dz2pTwo1PPmS/aUvRrOZd6eYkoIN/8I1jstLBk4psghkfoTSORe5T873UW5yDc1wSVXXoo79sw9yBslDJEaNZN+bzwvx1qvICb/6lfqrt/99rzCLH8WbbB41HsrkAl77ewExnLiWt5vyBwKf7CvAEB1RT6hmjoA49uIpyx89cs46nzOS5FY8H1Fxc6mB8kN9DI+ezzzOAyKIDAJafud2cA7OVEOtSzhbnx2qdQTnzd+IJK6Fprj1BEC9xVo2X8TBbjymvWDzf7nSAK+aDt6OjdfuxqSyn/tw7vLhgkh12ktzPmp8ZKHeMehfgsaJeBR5qcR2FFik1LO+gkg4N7wXagQ0Kf6spfCVNKvbsl2IwHpY1NjnRd0v8zeESAAS58DXUjILIvPW812OnNT5/jmyjFHnfgJkCSu/XYMcy4EosuerDUvhMSCDR2nBZwMcXzt6HMx/jQenp681+RAuw5LCXOYTDnf++mPo+z+jz9AXZ/PX90ci4b/JFT7x9vfeNg43/v/x+iHwfwFo6iVPWg/XqgAAAABJRU5ErkJggg==;" vertex="1" parent="1">
          <mxGeometry x="980" y="595" width="101" height="70" as="geometry" />
        </mxCell>
        <mxCell id="WUVt8O2-kMxFH5hkAYIA-38" value="" style="shape=image;html=1;verticalAlign=top;verticalLabelPosition=bottom;labelBackgroundColor=#ffffff;imageAspect=0;aspect=fixed;image=https://cdn4.iconfinder.com/data/icons/logos-brands-5/24/nginx-128.png" vertex="1" parent="1">
          <mxGeometry x="90" y="382" width="98" height="98" as="geometry" />
        </mxCell>
        <mxCell id="WUVt8O2-kMxFH5hkAYIA-43" value="" style="aspect=fixed;html=1;points=[];align=center;image;fontSize=12;image=img/lib/mscae/Cache_Redis_Product.svg;" vertex="1" parent="1">
          <mxGeometry x="280" y="648" width="50" height="42" as="geometry" />
        </mxCell>
      </root>
    </mxGraphModel>
  </diagram>
</mxfile>
